<?xml version="1.0" standalone="no"?>
<!DOCTYPE svg PUBLIC "-//W3C//DTD SVG 1.1//EN" "http://www.w3.org/Graphics/SVG/1.1/DTD/svg11.dtd" >
<svg>
<metadata>
Created by FontForge 20110222 at Mon Mar  7 11:57:38 2011
 By www-data
</metadata>
<defs>
<font id="MusicalSymbolsNormal" horiz-adv-x="1282" >
  <font-face 
    font-family="MusicalSymbols"
    font-weight="400"
    font-stretch="normal"
    units-per-em="4096"
    panose-1="2 11 114 0 0 0 0 0 0 0"
    ascent="3276"
    descent="-820"
    x-height="242"
    cap-height="770"
    bbox="-369 -5751 4297 5689"
    underline-thickness="50"
    underline-position="-75"
    unicode-range="U+0020-2122"
  />
    <missing-glyph />
    <glyph glyph-name="c32" unicode=" " horiz-adv-x="942" 
 />
    <glyph glyph-name="c33" unicode="!" horiz-adv-x="942" 
d="M119 897q137 84 231 143.5t144.5 128t50.5 183.5q0 122 -152 135q-72 0 -104.5 -28.5t-90 -96.5t-96.5 -68q-14 0 -20 25q4 75 101.5 150t262.5 75q121 0 206 -64t85 -177q-4 -86 -79 -147t-184.5 -114t-121.5 -67q82 16 127 16q161 0 269 -96t108 -256
q0 -170 -109.5 -318t-262 -234.5t-259.5 -86.5q-104 0 -161 46t-64 106q13 81 86 81q32 0 45.5 -15t37.5 -52t48 -47q9 -4 31 -8t31 -9q139 9 266 123t127 295q0 136 -61 248.5t-210 112.5q-179 0 -315 -74q-4 0 -20 16q15 62 53 74z" />
    <glyph glyph-name="c34" unicode="&#x22;" horiz-adv-x="2200" 
d="M0 0l1167 2089h201l-1167 -2089h-201zM721 0l1167 2089h209l-1175 -2089h-201z" />
    <glyph glyph-name="c35" unicode="#" horiz-adv-x="958" 
d="M193 -360v585l-193 -49v410l193 53v803h126v-770l275 65v799h127v-766l201 45v-405l-201 -58v-585l201 49v-422l-201 -49v-770h-127v737l-275 -74v-799h-126v770l-193 -49v422zM594 -262v590l-275 -70v-586z" />
    <glyph glyph-name="c36" unicode="$" horiz-adv-x="2191" 
d="M856 2376l303 -168v663l-303 168v-663zM1294 2847v-680l176 -111q109 33 192 128.5t83 199.5q0 93 -49 175.5t-111 111.5zM729 1176v679l-168 107q-102 -11 -185.5 -93t-96.5 -165q0 -108 52.5 -204.5t123.5 -147.5zM856 1151l303 -168v664l-303 168v-664zM1294 1618
v-676l176 -111q120 19 197.5 108t77.5 204q0 196 -168 307zM729 3670v172h127v-242l303 -159v401h135v-451q210 -100 358 -190t259.5 -235t111.5 -340q-9 -117 -41.5 -205.5t-80.5 -156t-127.5 -150t-143.5 -148.5q153 -85 238 -175t120 -196t35 -252q0 -389 -393 -606
q197 -134 315.5 -274.5t118.5 -335.5q0 -241 -136 -436t-356 -303.5t-454 -108.5q-222 0 -434 66.5t-347.5 183.5t-135.5 258q0 21 8 61q44 168 192 168h62q111 -22 250 -201.5t227 -260.5t285 -91q137 0 245 57.5t167 147t59 180.5q0 103 -58.5 204t-151.5 179.5
t-192 120.5v-168h-135v242l-303 143v-385h-127v447q-76 40 -225 121.5t-254 168.5t-173.5 208.5t-68.5 271.5q10 116 43 204.5t82.5 157t122.5 144t145 149.5q-225 129 -309 269t-84 354q0 223 109.5 364.5t292.5 245.5q-195 131 -302.5 288.5t-107.5 399.5q0 228 134 403
t349 269t439 94q220 0 431 -65.5t344.5 -181.5t133.5 -257q0 -21 -8 -61q-41 -195 -205 -209q-106 0 -160.5 55t-152.5 195t-208 221.5t-298 101.5q-212 0 -338 -112t-133 -252q8 -8 8 -25q6 -156 127.5 -287.5t265.5 -195.5zM737 2408v680l-168 103q-88 -11 -135 -59
t-74.5 -127t-48.5 -142q15 -221 144 -295z" />
    <glyph glyph-name="c37" unicode="%" horiz-adv-x="2310" 
d="M770 -176q-742 371 -762 881q9 167 86.5 320t212 248t299.5 95q202 0 347 -107t145 -303q-6 -83 -76 -136.5t-158 -59.5q-165 15 -200 135q-16 52 -36 116t-56.5 105t-100.5 41q-93 0 -151.5 -91t-61.5 -187q9 -131 83.5 -231.5t184 -173t240.5 -133.5t258 -118l745 1118
h222l-791 -1200q200 -98 364 -223.5t273 -295.5t109 -369q0 -173 -81.5 -324.5t-234.5 -241.5t-356 -90q-182 18 -292.5 133t-117.5 252q6 83 61.5 143t155.5 66q111 0 157.5 -50.5t73 -151t51 -142t99.5 -41.5q114 0 178 77.5t64 201.5q0 168 -119.5 281.5t-359.5 230
t-283 143.5l-725 -1126h-217zM16 -385q0 105 62 157t147 52q81 -7 137 -60t56 -157q0 -64 -62 -124.5t-131 -60.5q-86 0 -147.5 49t-61.5 144zM1704 319q0 104 56.5 161t144.5 57q89 0 149 -53.5t60 -155.5q0 -71 -63 -128t-138 -57q-80 0 -144.5 53.5t-64.5 122.5z" />
    <glyph glyph-name="c38" unicode="&#x26;" horiz-adv-x="3502" 
d="M1425 1552q-160 -45 -293 -199t-133 -337q0 -117 77 -258t227 -205q49 -12 49 -49q0 -15 -41 -25q-240 61 -391.5 253t-157.5 444q9 269 163.5 500.5t401.5 330.5l-119 619q-404 -335 -657 -699.5t-264 -791.5q6 -191 79.5 -370.5t219.5 -326.5q297 -297 766 -311
q160 10 344 57zM1552 1569l271 -1344q401 164 401 705q-21 179 -108 325t-232.5 230t-331.5 84zM1192 3383q87 53 195.5 180.5t209 296.5t161.5 344t61 326q0 68 -13 127q-9 94 -59 143.5t-129 49.5q-158 0 -283 -193q-98 -169 -158.5 -395t-66.5 -453q14 -260 82 -426z
M1081 3281q-118 425 -131 864q4 284 58 529t152 427.5t224 276.5q114 86 160 86q33 0 59 -24t68 -78q311 -441 311 -1065q0 -294 -77 -580.5t-227.5 -541.5t-358.5 -447l143 -688q116 16 160 16q197 0 361 -83t279.5 -226t178 -326t62.5 -381q0 -310 -161.5 -564
t-486.5 -374q20 -128 73.5 -368.5t78.5 -381.5t25 -274q0 -206 -100.5 -367.5t-273 -251t-376.5 -89.5q-287 0 -502.5 161t-226.5 437q8 122 59.5 232t142 179t212.5 76q104 0 194 -56t144.5 -152.5t54.5 -213.5q0 -153 -104.5 -260.5t-264.5 -107.5h-41q103 -160 336 -160
q118 0 240 49t208.5 132t112.5 179q41 107 41 295q0 124 -23.5 249.5t-73 328t-71.5 311.5q-156 -41 -327 -41q-285 0 -539 117t-446 326t-298.5 475t-109.5 553q10 267 103 510.5t242.5 458.5t309 389.5t426.5 443.5z" />
    <glyph glyph-name="c39" unicode="'" horiz-adv-x="553" 
d="M528 0h-528l262 664z" />
    <glyph glyph-name="c40" unicode="(" horiz-adv-x="705" 
d="M0 1032q0 282 183 571.5t464 444.5l25 -41q-159 -123 -252.5 -262.5t-134.5 -283t-50.5 -271.5t-9.5 -309q0 -377 111 -624t336 -425l-33 -41q-226 150 -368 356t-204 429.5t-67 455.5z" />
    <glyph glyph-name="c41" unicode=")" horiz-adv-x="705" 
d="M446 889q0 275 -45.5 483.5t-144 364.5t-256.5 270l33 41q131 -72 248.5 -193.5t204.5 -276t136.5 -330.5t49.5 -351q0 -341 -164 -642.5t-483 -463.5l-25 41q151 91 251 267.5t147.5 387t47.5 402.5z" />
    <glyph glyph-name="c42" unicode="*" horiz-adv-x="1561" 
d="M614 713q0 -48 40.5 -83.5t90.5 -35.5q44 0 81.5 36.5t37.5 90.5q0 55 -36.5 87t-82.5 32q-51 0 -91 -31.5t-40 -95.5zM201 1200q52 66 127 66q82 0 112 -42.5t44.5 -131t33.5 -129.5t80 -50q34 12 57 20t36.5 26t13.5 57q0 35 -16 62t-41 56t-52.5 67.5t-34.5 72.5
q6 69 57.5 114.5t126.5 45.5q63 0 115.5 -46t52.5 -114q0 -39 -16.5 -68.5t-49 -67t-53 -67t-24.5 -63.5q6 -37 18 -54.5t33.5 -29.5t50.5 -27q50 6 80.5 49t30.5 111q0 200 168 200q68 0 114 -44t46 -115q0 -72 -50 -116t-135 -44q-155 0 -168 -115q13 -28 20 -43.5t22 -25
t49 -17.5q37 7 62.5 24t71.5 56.5t74.5 55.5t69.5 16q65 0 108.5 -52.5t43.5 -115.5q0 -67 -47 -122.5t-121 -61.5q-41 10 -104 60t-87 66.5t-71 16.5q-43 0 -56.5 -17t-34.5 -65q12 -64 52 -81t127.5 -28.5t130.5 -43t43 -117.5q0 -69 -50 -115.5t-126 -52.5
q-65 7 -108.5 63.5t-43.5 161.5q0 46 -26.5 90.5t-84.5 44.5q-43 0 -73.5 -31.5t-36.5 -78.5q7 -31 35 -70.5t52 -69.5t40 -62.5t16 -72.5q0 -66 -54 -100.5t-122 -34.5q-60 0 -111 37.5t-57 97.5q7 43 25 71t56.5 73t54.5 72.5t16 66.5q0 90 -82 102q-88 0 -111.5 -50.5
t-23.5 -125.5q0 -169 -168 -184q-77 12 -116.5 53t-51.5 123q14 160 225 160q52 0 89.5 31t37.5 71q0 36 -25.5 59t-60.5 23q-56 0 -138 -64t-128 -71q-69 6 -114.5 53.5t-45.5 122.5q0 65 43.5 112.5t108.5 47.5q38 0 72 -16.5t77.5 -49t65 -46.5t59.5 -24q94 16 94 78
q0 115 -160 115q-193 0 -208 152q13 76 49 110z" />
    <glyph glyph-name="c43" unicode="+" 
d="M537 -614v540h-537v148h537v532h143v-532h545v-148h-545v-540h-143z" />
    <glyph glyph-name="c44" unicode="," horiz-adv-x="1118" 
d="M369 -270q-29 -9 -82 -9q-130 0 -208.5 81t-78.5 190q0 117 91.5 202t260.5 85q179 0 282 -124.5t103 -314.5q0 -245 -153.5 -469t-440.5 -321l-16 69q147 57 229 181t82 254q0 120 -69 176z" />
    <glyph glyph-name="c45" unicode="-" 
d="M0 74h1225v-156h-1225v156z" />
    <glyph glyph-name="c46" unicode="." horiz-adv-x="401" 
d="M0 0q0 77 55.5 135t137.5 58q76 0 134 -58t58 -135t-58 -135t-134 -58q-82 0 -137.5 58t-55.5 135z" />
    <glyph glyph-name="c47" unicode="/" horiz-adv-x="745" 
d="M233 2048v-2048h-233v2048h233zM713 2048v-2048h-242v2048h242z" />
    <glyph glyph-name="c48" unicode="0" horiz-adv-x="1552" 
d="M0 0q0 262 98.5 465t269 313.5t377.5 110.5q200 0 369 -118.5t267 -323t98 -447.5q0 -235 -104 -442.5t-273 -331t-348 -123.5q-184 0 -359 110t-285 314.5t-110 472.5zM737 -770q287 0 303 770q0 317 -79 543.5t-224 226.5q-148 0 -229.5 -229t-81.5 -541
q3 -334 76 -552t235 -218z" />
    <glyph glyph-name="c49" unicode="1" horiz-adv-x="1073" 
d="M168 -864v127q124 0 166.5 60.5t42.5 197.5v864l-283 -442l-94 41l369 872h446v-1352q0 -125 47 -183t162 -58v-127h-856z" />
    <glyph glyph-name="c50" unicode="2" horiz-adv-x="1536" 
d="M8 -831q-8 36 -8 102q0 126 61 219.5t137 150t256.5 175t290.5 209.5q75 61 134 187t59 243q0 138 -79 222.5t-245 84.5q-96 0 -176 -29.5t-86 -77.5q12 -43 34.5 -61.5t84 -58t88.5 -74t27 -92.5q0 -109 -82 -173t-193 -85q-102 7 -182 88.5t-80 238.5q4 136 105 240.5
t260 161.5t331 57q262 0 438.5 -129t176.5 -383q-5 -163 -110 -270.5t-281.5 -187.5t-318.5 -142.5t-195 -128.5q114 16 168 25q110 0 194 -27t184 -72t134 -45q106 0 139 213h119q0 -334 -113 -482.5t-289 -148.5q-88 0 -159.5 32.5t-168.5 99t-161 101t-142 42.5
q-85 -6 -145.5 -65t-79.5 -160h-127z" />
    <glyph glyph-name="c51" unicode="3" horiz-adv-x="1487" 
d="M881 33q133 -16 235 -72.5t156.5 -143t54.5 -194.5q0 -169 -107.5 -285t-280.5 -171.5t-361 -55.5q-275 13 -423 125.5t-155 259.5q0 118 67.5 203.5t174.5 91.5q5 -5 9.5 -6.5t6.5 -1.5q135 -5 198.5 -77t63.5 -169q0 -50 -43 -112.5t-47 -96.5q35 -90 131 -90
q115 0 220 70.5t116 212.5q0 234 -124 340t-372 106v127q253 0 362 81.5t109 270.5q0 143 -88 229.5t-223 86.5q-142 0 -184 -82q3 -19 50.5 -45.5t78.5 -68t31 -136.5q-6 -97 -80.5 -156t-177.5 -65q-103 7 -174.5 77t-71.5 193q0 189 190 300.5t449 117.5q239 0 429 -116
t202 -302q0 -374 -422 -446z" />
    <glyph glyph-name="c52" unicode="4" horiz-adv-x="1409" 
d="M496 -856v127q104 0 156.5 52t52.5 190v94h-705v135q204 231 311 476t152 638h602q-23 -57 -122 -195t-234 -303.5t-289.5 -335t-276.5 -280.5h562v352l438 426v-778h200v-135h-200v-119q0 -225 200 -225v-119h-847z" />
    <glyph glyph-name="c53" unicode="5" horiz-adv-x="1286" 
d="M49 -33l17 889q284 -57 548 -57q214 0 459 57q-34 -205 -172 -291t-373 -86q-168 0 -344 41l-16 -385q197 135 446 135q164 0 303.5 -68t223.5 -193.5t84 -287.5q0 -174 -103.5 -305.5t-271 -201.5t-354.5 -70q-121 0 -238.5 46.5t-191.5 138t-74 216.5q0 130 75 205
t183 82q102 -6 169.5 -76t67.5 -174q0 -38 -14.5 -65t-46.5 -66t-44.5 -59t-12.5 -47q0 -82 127 -82q169 0 244 135.5t75 322.5q0 98 -40.5 195.5t-117 162t-178.5 64.5q-76 0 -165.5 -45.5t-153.5 -130.5h-111z" />
    <glyph glyph-name="c54" unicode="6" horiz-adv-x="1528" 
d="M705 0q-102 -6 -165 -123t-69 -270q0 -150 65 -263.5t177 -113.5q110 0 169.5 125t59.5 317q-9 132 -79 230t-158 98zM438 -25q207 127 426 127q144 0 258 -54.5t180 -153.5t66 -222q0 -164 -96 -294.5t-249 -202.5t-310 -72q-228 0 -387 126t-238.5 327t-87.5 419
q7 269 107.5 498t293.5 318q217 98 381 98q152 0 267.5 -58.5t176 -146.5t60.5 -172q-3 -123 -77.5 -187t-184.5 -67q-93 0 -172 61t-82 152q5 29 37.5 110.5t32.5 123.5q0 57 -86 57q-299 0 -324 -660q8 -45 8 -127z" />
    <glyph glyph-name="c55" unicode="7" horiz-adv-x="1462" 
d="M1143 410q-171 -149 -328 -160q-106 16 -151 61q-96 102 -169 159.5t-143 57.5q-122 0 -225 -233h-127v536h127q21 -89 74 -102q49 10 77 26t81.5 52t98.5 55t95 19q209 0 377 -185q58 -77 151 -90q141 14 185 225h135q-34 -269 -99 -418t-190.5 -364.5t-182.5 -413.5
t-57 -524h-602q0 241 117 424t367.5 402.5t319.5 288.5t69 184z" />
    <glyph glyph-name="c56" unicode="8" horiz-adv-x="1655" 
d="M471 -82q-111 -90 -163 -160.5t-58 -167.5q30 -160 136 -256t278 -96q119 0 207.5 61.5t111.5 180.5q0 80 -62.5 149.5t-145 119.5t-184 102t-120.5 67zM856 176q184 145 184 311q0 137 -124.5 206t-276.5 69q-116 0 -193.5 -50.5t-85.5 -133.5q19 -103 96 -180
t167.5 -121.5t232.5 -100.5zM319 0q-123 55 -201.5 174t-84.5 252q17 223 209 347t430 124q127 0 271 -43t243.5 -134t99.5 -224q0 -206 -246 -410q129 -80 212 -191t83 -239q0 -173 -117 -297t-288.5 -186t-335.5 -62q-154 0 -290.5 53t-220 160.5t-83.5 257.5
q0 261 319 418z" />
    <glyph glyph-name="c57" unicode="9" horiz-adv-x="1847" 
d="M664 16q107 0 166 117t59 277q-6 140 -69.5 246t-155.5 106q-103 0 -169 -115.5t-69 -261.5q0 -153 62.5 -261t175.5 -108zM930 16q-166 -127 -426 -127q-158 0 -285.5 69.5t-177.5 201.5q-26 58 -41 184q5 142 83 266t228.5 201.5t360.5 77.5q173 0 307.5 -67.5
t221.5 -184t131 -268.5t44 -320q0 -172 -48.5 -337t-142.5 -298t-232.5 -214.5t-313.5 -88.5q-165 0 -290.5 53.5t-195 138t-71.5 169.5q0 121 76.5 195.5t177.5 74.5q103 0 180.5 -67.5t77.5 -161.5q0 -48 -33.5 -125.5t-40.5 -108.5q10 -49 111 -49q299 15 299 786z" />
    <glyph glyph-name="c58" unicode=":" horiz-adv-x="799" 
d="M0 -1798v1732q0 78 64.5 153t160 119t185.5 44q84 0 140 -54.5t56 -138.5q0 -116 -135.5 -215.5t-277.5 -99.5q-88 0 -136 41l-8 -1032q119 12 218 88.5t155.5 191t56.5 232.5q0 206 -127 458l33 17q160 -270 160 -512q0 -131 -25 -209q-29 -97 -122 -203.5t-168.5 -186
t-128 -182.5t-52.5 -243h-49z" />
    <glyph glyph-name="c59" unicode=";" horiz-adv-x="1618" 
d="M614 1794q0 -161 65 -274.5t192 -251.5t191 -243.5t64 -254.5q0 -234 -176 -520h-37q136 266 136 471q0 401 -435 520v-1175q0 -87 -65.5 -162t-160.5 -118.5t-179 -43.5q-186 0 -209 156q0 135 132 243.5t278 108.5q100 0 151 -41v1585h53z" />
    <glyph glyph-name="c61" unicode="=" horiz-adv-x="4432" 
d="M-33 -33v99h4088h135v-99h-4088h-135zM-33 938v94h4088h135v-94h-4088h-135zM-33 1999v98h4088h135v-98h-4088h-135zM-33 2998v99h4088h135v-99h-4088h-135zM-33 4030v99h4088h135v-99h-4088h-135z" />
    <glyph glyph-name="c62" unicode="&#x3e;" horiz-adv-x="1786" 
d="M0 1049l1704 -521l-1704 -512v136l1266 376l-1266 385v136z" />
    <glyph glyph-name="c63" unicode="?" horiz-adv-x="2970" 
d="M0 872q408 276 604.5 418t407.5 354t356 478q113 194 193 451t86 491q0 219 -57.5 416.5t-196 326.5t-361.5 129q-217 0 -406 -86t-266 -282q0 -16 -16 -50q5 -40 43 -63t68 -23q16 0 85 16.5t115 16.5q136 0 244.5 -95.5t108.5 -231.5q0 -98 -54 -183.5t-149.5 -135.5
t-210.5 -50q-206 0 -349 126.5t-143 328.5q0 260 158 449.5t403.5 285.5t495.5 96q278 0 523 -141t389.5 -381.5t144.5 -517.5q0 -494 -329 -918t-814 -737q-325 -215 -1048 -578zM2384 3527q0 91 65.5 154t159.5 63q84 0 152.5 -69.5t68.5 -156.5q0 -95 -69 -158t-160 -63
q-94 0 -155.5 67t-61.5 163zM2384 2626q0 95 63 158t162 63q83 0 152 -69t69 -152q0 -98 -65 -162t-156 -64q-99 0 -162 62t-63 164z" />
    <glyph glyph-name="c64" unicode="@" horiz-adv-x="913" 
d="M119 1098q-3 -6 -7.5 -19.5t-9.5 -21.5q9 -8 58 -8q278 -14 449 -109t190 -342q0 -120 -84 -244t-243.5 -217t-377.5 -129q-37 0 -61 -8q-16 0 -23.5 3t-9.5 5q0 36 86 49q272 73 400 196.5t128 315.5q0 202 -194 273t-395 71q-9 0 -17 -8l-8 8q2 4 16 62l78 282
q25 87 36 125t21.5 44t65.5 16l488 69h24v-8q0 -102 -16 -135v-41q0 -8 -58 -8l-438 -53q-37 0 -57 -49z" />
    <glyph glyph-name="c65" unicode="A" horiz-adv-x="1417" 
d="M1126 -119q-95 -163 -309.5 -278t-423.5 -115q-168 0 -284.5 102t-116.5 267q0 182 123 330t311.5 232.5t364.5 84.5q192 0 313 -86t121 -283v-3248h-99v2994z" />
    <glyph glyph-name="c66" unicode="B" horiz-adv-x="3006" 
d="M0 -41v4088v90h479v-4088v-90h-479zM721 -41v4088v90h151v-2048q115 58 230.5 244.5t192 395.5t81.5 310q36 -223 112.5 -357t172.5 -191.5t194 -57.5q240 0 304.5 215.5t64.5 525.5q0 141 -7 253.5t-35 227.5t-94 205.5t-175 124.5q-97 25 -193 25q-86 0 -144 -30
t-65 -85q13 -47 69.5 -112.5t77.5 -97.5t21 -93q0 -107 -75.5 -182.5t-202.5 -75.5q-125 0 -201 89t-82 210q11 163 118 279t266.5 174.5t320.5 58.5q184 0 353 -64t301 -188t208 -303.5t76 -406.5q0 -313 -117.5 -520t-302.5 -304t-395 -102q-216 12 -361 94l-192 -303
l192 -303q199 78 389 78q239 0 419 -134.5t274 -348.5t94 -443q0 -251 -113 -466t-320 -343.5t-473 -128.5q-312 13 -520.5 145.5t-208.5 391.5q13 123 93.5 195t173.5 79q116 0 205.5 -79t89.5 -195q0 -46 -21 -85t-64 -90t-59.5 -75.5t-23.5 -61.5q0 -47 61.5 -79.5
t155.5 -38.5q298 13 396.5 246.5t98.5 584.5q0 306 -70.5 536t-306.5 230q-211 0 -325.5 -178.5t-145.5 -419.5q-35 202 -113 392.5t-181 333.5t-218 224v-2056h-151z" />
    <glyph glyph-name="c67" unicode="C" horiz-adv-x="1831" 
d="M774 823q-254 -131 -254 -581v-492q0 -240 73 -386.5t181 -203.5v1663zM774 1737h123v-697q211 0 399 -73.5t302 -216t114 -340.5q-4 -102 -54.5 -178.5t-130.5 -118.5t-175 -47q-135 12 -222.5 92.5t-113.5 210.5q6 121 110 217.5t217 109.5q74 0 74 41q0 35 -57.5 77
t-147.5 70.5t-180 28.5q-73 0 -135 -24v-1778q41 -16 127 -16q151 0 282.5 108.5t215.5 270t96 309.5h102q-39 -427 -271.5 -625t-551.5 -198v-705h-123v721q-301 57 -528.5 314t-245.5 710q0 367 206.5 646.5t567.5 369.5v721z" />
    <glyph glyph-name="c68" unicode="D" horiz-adv-x="3482" 
d="M184 225l279 1008q0 12 4 32t4 29q0 49 -37.5 72t-130.5 35v33h537q712 0 712 -586q0 -264 -139.5 -457.5t-370 -292t-489.5 -98.5h-553v33q83 0 123.5 48.5t60.5 143.5zM705 1327l-312 -1151q0 -16 -8 -33q13 -77 152 -77q221 0 396 108.5t272.5 295t97.5 411.5
q0 487 -455 487q-102 0 -143 -41zM3158 1434l-78 -443h-41q-27 369 -336 369q-193 0 -345.5 -134.5t-235 -338t-82.5 -391.5q0 -196 89.5 -329.5t270.5 -133.5q293 0 529 262l32 -33q-245 -336 -610 -336q-163 0 -290.5 81t-197 219t-69.5 302q0 226 125 439t333 344
t435 131q67 0 123 -10t124 -27t97 -21q61 21 90 50h37zM1409 119q0 45 34.5 79.5t84.5 34.5q43 0 76.5 -35t33.5 -79q0 -52 -32.5 -85.5t-77.5 -33.5q-51 0 -85 33t-34 86zM3097 102q0 50 31.5 82.5t78.5 32.5q51 0 83 -32t32 -83q0 -47 -32.5 -78.5t-82.5 -31.5
q-46 0 -78 32t-32 78z" />
    <glyph glyph-name="c69" unicode="E" horiz-adv-x="1311" 
d="M0 -160q0 193 128.5 348t323.5 239.5t379 84.5q372 0 394 -352q0 -152 -122 -311t-314.5 -260t-387.5 -101q-178 0 -307 82v-2056q253 42 454.5 198t314 374t112.5 435q-5 255 -63.5 435t-206.5 507l65 25q95 -168 171 -350.5t120.5 -370.5t44.5 -369
q0 -270 -127.5 -483.5t-378.5 -502t-378.5 -504.5t-127.5 -492h-94v3424z" />
    <glyph glyph-name="c70" unicode="F" horiz-adv-x="3617" 
d="M2306 1024q66 172 192 324t304.5 246t388.5 94q113 -11 169 -79.5t56 -166.5q0 -104 -66.5 -185t-166.5 -81q-122 0 -136 110q8 72 54 137t114 88q25 0 25 25q0 15 -31 32t-80 17q-275 0 -417 -561h360v-135h-393q-49 -216 -126.5 -440.5t-162 -411.5t-158.5 -299
q-108 -166 -229 -283.5t-291 -150.5q-74 -9 -90 -9q-146 0 -229 91t-90 213q11 107 63 162t154 87q77 -6 126.5 -54.5t49.5 -121.5q0 -46 -25.5 -86.5t-63 -77.5t-71.5 -69q0 -25 57 -25q236 0 373 500q48 135 85 261.5t106.5 376t99.5 337.5h-275v135h324zM184 0l303 823
q17 62 17 82q0 45 -49 45q-60 0 -161.5 -120.5t-199.5 -350.5h-94q121 260 252.5 431t325.5 171q147 0 159 -159q184 168 328 168q156 0 168 -168q75 75 181 121.5t196 46.5q159 0 159 -132q0 -28 -16 -94l-225 -647q-9 -37 -15 -59t-10 -39q0 -39 41 -53q129 16 336 364h82
q-61 -103 -133.5 -222.5t-161 -196.5t-205.5 -77q-203 0 -254 185q6 59 40 156t38 118l164 422q2 13 7 37t5 37q0 53 -45 53q-123 0 -184 -168l-275 -774h-294l303 831q8 25 8 58q0 53 -62 53q-110 -5 -159 -168l-283 -774h-287z" />
    <glyph glyph-name="c71" unicode="G" horiz-adv-x="631" 
d="M0 0v74l606 278v-82z" />
    <glyph glyph-name="c72" unicode="H" horiz-adv-x="1511" 
d="M0 -127q0 194 122 348t311 239t382 85q204 0 311 -107t107 -278q0 -148 -71 -279t-190.5 -228.5t-262 -151.5t-283.5 -54q-166 0 -332 82v-3113h-94v3457zM401 94q-269 -229 -282 -381q13 -53 37 -75.5t77 -22.5q144 0 504 225q151 94 256 229t105 226q0 90 -115 90
q-98 0 -205.5 -40.5t-203 -106t-173.5 -144.5z" />
    <glyph glyph-name="c73" unicode="I" horiz-adv-x="471" 
d="M94 -184v295l-94 -25v201l94 32v312h58l8 -295l135 33v401h65v-385l95 25v-209l-95 -25v-295l95 33v-217l-95 -25v-327h-65v311l-135 -33v-414h-66v398l-94 -25v209zM295 -127v287l-135 -33v-295z" />
    <glyph glyph-name="c74" unicode="J" horiz-adv-x="1376" 
d="M0 -2408h94v-78q231 23 429 163.5t316.5 377.5t118.5 528q0 441 -253 880l57 25q364 -613 364 -1032q0 -284 -128 -500.5t-386 -513.5t-388 -519.5t-130 -506.5h-94v1176z" />
    <glyph glyph-name="c75" unicode="K" horiz-adv-x="1470" 
d="M94 -3584h-94v1610h94v-90q201 111 368 205.5t303 206t222 266t86 362.5q0 259 -151 598l53 49q184 -322 184 -639q0 -203 -86 -463q33 -156 33 -336q0 -346 -137 -605.5t-331 -457.5t-369 -382t-175 -324zM94 -2937q324 173 535.5 383.5t311 432.5t99.5 433q0 86 -8 127
q-29 -102 -181.5 -253t-329.5 -325t-296 -369.5t-131 -428.5z" />
    <glyph glyph-name="c76" unicode="L" horiz-adv-x="1753" 
d="M0 -561v1192h614v-893q378 -187 642 -401t415 -521l-94 -33q-279 358 -664 480q-372 108 -913 176z" />
    <glyph glyph-name="c77" unicode="M" horiz-adv-x="2519" 
d="M0 86v242l496 569q64 70 90 70t102 -70l438 -385v754h123v-652l238 283q71 78 90 78q20 0 102 -62l344 -307q121 -99 127 -102q19 5 54 48t53 62l143 177v-222l-434 -512q-49 -65 -94 -65q-23 0 -103 74l-319 286q-86 86 -139 86q-13 0 -21.5 -6.5t-20 -22t-20.5 -24.5
v-754h-123v611l-151 -185q-59 -65 -94 -65q-14 0 -28.5 8.5t-40.5 31t-42 34.5l-360 327q-66 53 -82 53q-28 0 -70 -53z" />
    <glyph glyph-name="c79" unicode="O" horiz-adv-x="1286" 
d="M0 8q407 290 614 537q109 -137 206.5 -237t197 -173t215.5 -135q-349 -219 -619 -545q-77 146 -262 315t-352 238zM279 102l450 -389l229 201l-454 397z" />
    <glyph glyph-name="c80" unicode="P" horiz-adv-x="3551" 
d="M160 0l286 799q17 60 17 90q0 49 -37 49q-64 0 -163.5 -125t-168.5 -334h-94q75 229 227 430t351 201q159 0 159 -172q60 72 154.5 120t181.5 48q152 0 152 -168q73 73 174.5 120.5t193.5 47.5q152 0 152 -156q0 -53 -8 -86l-226 -671q0 -18 -16 -82q0 -49 41 -62
q64 6 153 110t175 287l65 -28q-113 -232 -222.5 -368t-281.5 -136q-193 0 -233 188q4 50 15 98.5t28 105t22 79.5l160 414q17 51 17 90q0 78 -50 78q-43 0 -72 -39t-56.5 -112.5t-30.5 -78.5l-287 -737h-299l299 799q12 72 12 82q0 86 -53 86q-29 0 -59 -40.5t-65 -114.5
t-36 -75l-258 -737h-319zM2064 258l193 541q16 64 16 98q0 45 -41 45q-29 0 -73 -45q-100 -106 -160 -225h-103q30 89 98 185.5t158.5 160t182.5 63.5q152 0 209 -143q80 68 187 114t206 46q173 0 266.5 -138.5t93.5 -320.5q0 -167 -81.5 -336.5t-223.5 -279t-313 -109.5
q-159 0 -295 119l-160 -459q-8 -20 -24 -70q6 -53 54.5 -71.5t162.5 -18.5v-127h-938v127q174 0 248 52.5t104 140.5zM2576 606q-66 -150 -82 -397q16 -160 74 -160q204 39 336 471q41 154 41 279q0 155 -82 168q-135 0 -287 -361z" />
    <glyph glyph-name="c81" unicode="Q" 
d="M0 -3584v3424q0 197 130.5 349t328 233.5t389.5 81.5q377 0 377 -352q0 -121 -72.5 -240t-194.5 -215q-116 -97 -256 -153t-264 -56q-243 0 -344 86v-3158h-94z" />
    <glyph glyph-name="c82" unicode="R" horiz-adv-x="1311" 
d="M999 -1585q-131 -135 -229.5 -237t-193.5 -197.5t-199 -188.5q-110 -92 -193.5 -263t-89.5 -306q284 160 473 308.5t310.5 367t121.5 516.5zM999 -2241q-115 -212 -279.5 -388.5t-408.5 -385.5q-195 -176 -217 -475q223 131 378.5 240.5t275 239.5t188 299.5t68.5 383.5
q0 22 -2.5 47.5t-2.5 38.5zM1065 -2114q45 -184 45 -380q0 -259 -98.5 -459.5t-247 -353t-453.5 -420.5q-198 -180 -217 -512h-94v4079q0 197 130.5 349t328 233.5t389.5 81.5q377 0 377 -352q0 -121 -72.5 -240t-194.5 -215q-116 -97 -256 -153t-264 -56q-243 0 -344 86
v-1638q80 54 327.5 207.5t366 257.5t193.5 263t84 394q0 144 -49.5 333t-85.5 224l53 41q176 -297 176 -680q0 -260 -78 -430q29 -196 29 -324q0 -190 -45 -336z" />
    <glyph glyph-name="c83" unicode="S" horiz-adv-x="2593" 
d="M1753 1024h361v-135h-402l-135 -471q-155 -445 -363 -773t-534 -350q-133 0 -234.5 81.5t-101.5 213.5q0 84 57 171t168 87q79 0 123.5 -47.5t44.5 -111.5q0 -59 -20.5 -83.5t-74 -74.5t-64.5 -92q11 -33 45 -33q125 0 222.5 152.5t161.5 354.5t149.5 528.5t129.5 447.5
h-270v135h327q106 272 332 472t500 200q120 0 201.5 -67.5t81.5 -178.5q0 -100 -51.5 -187t-174.5 -87q-62 0 -102.5 41.5t-40.5 101.5q21 110 102 143q17 14 39.5 29.5t36.5 28t14 24.5q0 27 -26.5 37t-71.5 21q-152 0 -270 -209q-79 -119 -160 -369zM152 745
q0 153 120 253t297 100q149 -14 255 -78t106 -180q0 -45 -31.5 -83t-75.5 -44q-49 0 -97 33.5t-54 76.5q16 34 16 66q0 78 -127 78q-58 -6 -100.5 -48.5t-42.5 -103.5q4 -68 148 -165.5t217 -170.5t73 -229q-11 -140 -136.5 -220.5t-293.5 -95.5q-161 0 -289.5 80
t-128.5 211q0 69 32 118.5t103 49.5q115 0 115 -106q0 -39 -41 -144q10 -69 176 -69q61 0 123 40.5t62 102.5q0 70 -48.5 114t-156 113t-163 134.5t-58.5 166.5z" />
    <glyph glyph-name="c84" unicode="T" horiz-adv-x="3281" 
d="M1266 -258q-33 28 -147 125t-236 185.5t-241.5 147t-215.5 58.5q-120 -11 -206.5 -125t-92.5 -235q13 -193 225 -193q30 0 48.5 10.5t64 43.5t81 49t85.5 16q145 0 184 -127q0 -123 -101 -182.5t-218 -59.5q-268 13 -402.5 146t-134.5 325q0 139 72.5 275.5t204 230
t301.5 113.5q223 0 419 -96.5t384.5 -250.5t363.5 -300q69 -58 178.5 -109t206.5 -51q150 8 226.5 99t76.5 212q0 105 -59.5 175.5t-157.5 70.5q-34 0 -96 -41t-98 -59.5t-101 -18.5q-68 0 -122 47.5t-54 120.5q0 97 102.5 145t216.5 48q166 0 290 -78.5t189.5 -206
t65.5 -268.5q0 -142 -65 -262t-199 -193.5t-330 -73.5q-189 0 -349 72t-359 215z" />
    <glyph glyph-name="c85" unicode="U" horiz-adv-x="2822" 
d="M2695 0h-143q-11 285 -190.5 521.5t-456 369.5t-562.5 133q-208 0 -420.5 -76.5t-388.5 -216.5t-282.5 -326.5t-116.5 -404.5h-135q23 281 125 538.5t276.5 462t414.5 323t527 118.5t529 -118t418.5 -321.5t280.5 -463.5t124 -539zM1569 209q0 -91 -65.5 -150t-160.5 -59
q-101 0 -167 59t-66 150q0 78 66 135t167 57q95 0 160.5 -57.5t65.5 -134.5z" />
    <glyph glyph-name="c86" unicode="V" horiz-adv-x="3097" 
d="M2744 705q0 176 -110 176q-101 0 -237.5 -130t-234.5 -299t-98 -268q0 -63 44.5 -95t107.5 -32q126 0 249.5 108t201 262t77.5 278zM2777 86q0 37 25.5 63.5t60.5 26.5q38 0 64 -26t26 -64q0 -35 -26.5 -60.5t-63.5 -25.5q-34 0 -60 26t-26 60zM496 49q149 0 250.5 87
t101.5 233q0 103 -72.5 184t-170.5 124.5t-167 43.5q-36 0 -107 -47t-125 -127t-54 -178q0 -146 98 -233t246 -87zM1577 840q-79 -130 -188 -237t-205 -107q-55 0 -83 42t-28 101q0 109 74.5 228t190 197.5t223.5 78.5q76 0 102 -45q29 53 98 53q25 0 25 -8l-164 -520
q-7 -29 -12 -37v-8q22 6 54 26.5t32 26.5q17 17 43 53.5t30 36.5q17 0 17 -8q0 -46 -90 -131.5t-152 -85.5q-20 0 -33 57q15 127 66 287zM1647 1049q0 61 -86 61q-84 0 -172 -80t-146.5 -189t-58.5 -186q0 -86 57 -86t133.5 69.5t120.5 135.5q45 54 98.5 143.5t53.5 131.5z
M303 713l66 24q-320 103 -320 361q0 167 150.5 269.5t328.5 102.5q171 0 300.5 -86.5t129.5 -248.5q0 -106 -66 -164.5t-196 -114.5l-65 -41q153 -33 260.5 -133t107.5 -252q0 -198 -156 -314t-364 -116q-180 0 -329.5 107.5t-149.5 277.5q0 129 76.5 195.5t226.5 132.5z
M496 1442q-120 0 -211.5 -77t-91.5 -198q0 -131 120 -225t248 -94q85 0 173.5 85t88.5 202q0 137 -93 222t-234 85zM2007 471l217 713q1 4 13 40t12 58t-16.5 29t-38 9t-43 6t-21.5 17q0 41 61 41q75 0 117 8.5t84 41.5q2 2 8 5t17 3q24 0 24 -25l-282 -930
q44 92 134.5 200.5t197.5 185.5t196 77q105 0 157 -80t52 -190q0 -125 -56.5 -247.5t-150.5 -219t-217.5 -155t-247.5 -58.5q-117 0 -189.5 59t-72.5 174q0 41 45 238z" />
    <glyph glyph-name="c87" unicode="W" horiz-adv-x="2634" 
d="M0 -680v1360h143v-1360h-143zM410 680v-1360h-148v1360h148zM2105 -680v1360h136v-1360h-136zM2367 -680v1360h144v-1360h-144zM922 86q15 -228 137.5 -376t292.5 -148q125 16 179 88t54 256q-12 235 -134.5 379.5t-299.5 144.5q-129 -22 -179 -91.5t-50 -252.5zM410 0
q0 184 138.5 299t331 164t361.5 49q178 0 373.5 -47t339.5 -162.5t151 -302.5q0 -188 -140 -305t-334 -166t-365 -49q-181 0 -374 47.5t-334 164.5t-148 308z" />
    <glyph glyph-name="c88" unicode="X" horiz-adv-x="1327" 
d="M0 -160q0 190 126.5 342.5t320 237t376.5 84.5q367 0 410 -328q0 -151 -117.5 -311.5t-307.5 -264.5t-390 -104q-170 0 -316 78v-1638q623 369 820 585q151 178 151 480q0 295 -143 581l45 41q192 -347 192 -672q0 -219 -94 -430q45 -145 45 -336q0 -511 -397 -987
q-84 -102 -257.5 -245t-260 -255t-101.5 -282h-102v3424zM94 -2937q320 147 533 356.5t313 442t100 455.5q0 40 -8 122q-73 -156 -228.5 -306t-301.5 -287t-256 -322.5t-152 -460.5z" />
    <glyph glyph-name="c89" unicode="Y" horiz-adv-x="2888" 
d="M1126 -119q-49 -108 -166.5 -199t-268.5 -142.5t-290 -51.5q-184 0 -296.5 103t-112.5 282q0 167 131 319t329 244t379 92q187 0 294.5 -92.5t107.5 -283.5v-1799q433 253 575.5 347.5t258.5 265t116 420.5q0 241 -127 598l49 49q193 -343 193 -664q0 -243 -98 -434
q49 -107 49 -270q0 -176 -52 -374t-135.5 -367t-165.5 -251q-93 -102 -288.5 -281.5t-277.5 -293.5t-97 -272h-107v3055zM1233 -2519q209 61 429 261t364.5 468.5t144.5 519.5q0 65 -12 127q-70 -155 -241.5 -341t-315 -338t-245.5 -319.5t-124 -377.5z" />
    <glyph glyph-name="c90" unicode="Z" horiz-adv-x="2793" 
d="M1409 1024h360v-135h-401q-151 -517 -266 -813t-328 -539q-191 -230 -446 -242q-139 0 -233.5 83.5t-94.5 211.5q0 86 45.5 162.5t155.5 87.5q74 0 129 -45t55 -114q0 -52 -24 -85t-72.5 -80t-63.5 -77q11 -33 37 -33q129 0 229.5 152t171 367t155 534.5t124.5 429.5
h-270v135h327q71 173 195 325.5t290 249.5t347 97q81 -3 134 -23.5t78.5 -46.5t42.5 -62t28 -61v-53q0 -117 -57 -173t-185 -118q-49 6 -88 43t-39 80q0 12 -8 21q12 119 102 159q90 34 90 74q0 44 -90 57q-161 0 -270 -200q-79 -119 -160 -369zM1544 119l815 688h-303
q-55 0 -88.5 -35.5t-79.5 -107.5h-90l107 360h757v-119l-856 -712h9q81 57 159 57q60 0 144.5 -26t113.5 -56q66 16 66 65v29q-75 57 -82 115q0 35 34.5 68.5t84.5 33.5q64 0 98 -49t41 -119q-12 -179 -115 -278t-254 -99q-68 0 -193 57.5t-192 57.5q-72 0 -127 -49h-123
q21 76 74 119z" />
    <glyph glyph-name="c91" unicode="[" horiz-adv-x="631" 
d="M0 4137h606v-4088v-90h-606v4088v90z" />
    <glyph glyph-name="c92" unicode="\" 
d="M1225 3584v-3432h-99v3432h99z" />
    <glyph glyph-name="c93" unicode="]" horiz-adv-x="1954" 
d="M606 -41h-606v4088v90h606v-4088v-90zM1343 1511q0 109 78 188t189 79q101 0 177.5 -79.5t76.5 -187.5q0 -100 -77 -177t-177 -77q-110 0 -188.5 76t-78.5 178zM1343 2585q0 107 78.5 184.5t188.5 77.5q101 0 177.5 -78t76.5 -184q0 -101 -77 -179.5t-177 -78.5
q-109 0 -188 78t-79 180zM1057 -41h-152v4088v90h152v-4088v-90z" />
    <glyph glyph-name="c94" unicode="^" horiz-adv-x="1118" 
d="M471 1704l602 -1704h-282l-390 1098l-307 -1098h-94z" />
    <glyph glyph-name="c95" unicode="_" horiz-adv-x="2142" 
d="M0 57h2048v-123h-2048v123z" />
    <glyph glyph-name="c96" unicode="`" horiz-adv-x="2183" 
d="M479 664l66 233q-117 94 -258 94q-91 0 -143 -52t-58 -124q0 -103 66 -152t143 -49q8 0 16 -8q40 5 168 58zM991 0l275 922q0 36 -25 36q-57 0 -241 -120.5t-201 -141.5q8 9 24 25q152 -220 152 -418q-13 -152 -105.5 -264.5t-230.5 -112.5q-118 0 -211.5 55.5
t-99.5 161.5q8 25 8 66l94 360q-60 -32 -168 -32q-115 6 -188.5 81.5t-73.5 204.5q7 117 80 192t215 75q135 0 283 -107l159 504h295l-217 -680q198 155 333 219t294 64q110 0 110 -91q0 -17 -4.5 -40.5t-13 -52.5t-14.5 -50q144 234 327 234q82 0 133.5 -60t51.5 -141
q0 -74 -40 -117t-104 -43q-41 0 -72.5 27.5t-37.5 83.5q6 27 13 56t11 49t4 38q0 16 -20 16q-25 0 -98 -49q-67 -46 -134 -158t-112 -264l-168 -528h-283zM762 639l-168 -496q0 -24 -8 -41q0 -65 78 -77q225 109 225 319q0 133 -127 295z" />
    <glyph glyph-name="c97" unicode="a" horiz-adv-x="1286" 
d="M94 3113v-2994q44 90 172 178.5t291 143.5t307 55q361 0 361 -344q0 -196 -121 -349.5t-309.5 -238t-376.5 -84.5q-180 0 -299 91t-119 269v3273h94z" />
    <glyph glyph-name="c98" unicode="b" horiz-adv-x="856" 
d="M0 -737v2744h119v-1597q170 151 352 151q144 0 241 -89t103 -255q-3 -118 -82 -229.5t-215 -231.5t-282 -249t-236 -244zM119 225v-688q189 216 291 363t102 309q-6 99 -52.5 150t-115.5 51q-136 0 -225 -185z" />
    <glyph glyph-name="c99" unicode="c" horiz-adv-x="1806" 
d="M0 66q0 245 131 473t351 369t468 141q175 -5 352.5 -79.5t293.5 -212.5t116 -319q0 -157 -104.5 -260.5t-255.5 -103.5q-131 0 -216 77t-104 209q6 119 86 212.5t201 123.5q25 5 45 8.5t36.5 13t16.5 27.5q-27 86 -144 131.5t-224 45.5q-125 0 -236 -67.5t-182 -174.5
q-103 -178 -103 -631q0 -426 33 -561q48 -181 167 -283t296 -102q141 0 264 82.5t210.5 237t119.5 360.5h111q-26 -350 -242 -586.5t-582 -236.5q-279 0 -484.5 163.5t-313 420t-107.5 522.5z" />
    <glyph glyph-name="c100" unicode="d" horiz-adv-x="3207" 
d="M553 0h-553v33q83 0 123.5 48.5t60.5 143.5l279 1008q0 12 4 32t4 29q0 49 -37.5 72t-130.5 35v33h537q712 0 712 -586q0 -264 -139.5 -457.5t-370 -292t-489.5 -98.5zM705 1327l-312 -1151q0 -16 -8 -33q13 -77 152 -77q375 0 570.5 218.5t195.5 596.5q0 487 -455 487
q-102 0 -143 -41zM2896 1434l-86 -426h-41q0 352 -266 352q-102 0 -166 -60t-64 -157q0 -91 52 -160.5t167 -182.5t175.5 -206.5t60.5 -216.5q0 -126 -62.5 -222.5t-163.5 -150t-212 -53.5q-58 0 -176 41t-160 41q-30 0 -52.5 -23t-29.5 -51h-41l74 471h49q0 -29 -8 -61
q6 -139 93.5 -241.5t225.5 -102.5q118 0 198.5 85.5t80.5 200.5q0 95 -55.5 171t-173.5 193t-176 202.5t-58 195.5q0 157 112 259t273 102q108 0 184 -29t111 -29q42 0 86 58h49zM1409 119q0 45 34.5 79.5t84.5 34.5q43 0 76.5 -35t33.5 -79q0 -52 -32.5 -85.5t-77.5 -33.5
q-51 0 -85 33t-34 86zM2822 102q0 50 36 82.5t87 32.5q47 0 79 -32t32 -83q0 -47 -32.5 -78.5t-78.5 -31.5q-51 0 -87 32t-36 78z" />
    <glyph glyph-name="c101" unicode="e" horiz-adv-x="2560" 
d="M1126 3584h99q35 -234 94.5 -392.5t139 -271t238.5 -291t257 -302.5q295 -378 295 -791q0 -424 -361 -1032h-65q46 106 107 246t102.5 254t65.5 227t24 223q0 174 -71 351t-198.5 327t-290 243t-337.5 103v-2318q0 -198 -121.5 -352.5t-311 -237t-374.5 -82.5
q-180 0 -299 90t-119 262q0 183 120.5 338t304.5 244.5t357 89.5q239 0 344 -94v2093v1073z" />
    <glyph glyph-name="c102" unicode="f" horiz-adv-x="2232" 
d="M1409 1024h360v-135h-401q-173 -589 -303 -873q-96 -203 -187.5 -348t-228 -249.5t-321.5 -123.5q-123 0 -225.5 82.5t-102.5 212.5q0 84 49 163t160 95q73 0 128.5 -48.5t55.5 -118.5q0 -48 -23 -78.5t-73 -77t-64 -78.5q11 -41 46 -41q125 0 222.5 152.5t161.5 354.5
t149.5 528.5t129.5 447.5h-270v135h327q70 175 196.5 329t293.5 248.5t350 94.5q75 0 124 -20.5t77 -51.5t46 -69.5t28 -59.5q0 -111 -65 -221t-185 -115q-15 15 -52.5 31.5t-57 36.5t-25.5 67q13 138 126 185q74 18 74 57q0 54 -90 66q-152 0 -270 -209q-79 -119 -160 -369
z" />
    <glyph glyph-name="c103" unicode="g" horiz-adv-x="598" 
d="M242 2183h77q109 -102 175.5 -186t66.5 -174q0 -72 -44 -129.5t-130 -135.5t-130.5 -137.5t-47.5 -134.5h8q0 -72 41.5 -130.5t128 -141.5t130.5 -145t44 -140q0 -75 -44 -135.5t-130 -140.5t-128 -135.5t-42 -124.5q0 -39 102 -193h-77q-135 130 -188.5 197.5
t-53.5 171.5q0 76 42 131.5t129 132.5t130 134t43 138q0 39 -40 94t-112 135.5t-98 114.5q-94 146 -94 205q4 93 85 180.5t168 177.5t91 170q0 43 -20.5 76.5t-81.5 124.5z" />
    <glyph glyph-name="c104" unicode="h" horiz-adv-x="1409" 
d="M1126 463v3121h99v-3482q-4 -165 -129 -316t-305 -242.5t-336 -96.5q-164 0 -260.5 40t-141.5 138t-45 273q4 189 131.5 338.5t318.5 233t373 83.5q176 0 295 -90zM393 86q-64 -41 -166.5 -160t-107.5 -205q12 -85 106 -106q93 0 238.5 60t281.5 165q90 58 225.5 206
t135.5 241q0 84 -90 106q-225 0 -623 -307z" />
    <glyph glyph-name="c105" unicode="i" horiz-adv-x="401" 
d="M0 -369v1377h57v-807q86 78 176 78q141 0 152 -177q0 -81 -52 -143.5t-166.5 -161t-166.5 -166.5zM57 102v-335q104 122 148.5 185.5t44.5 133.5q0 115 -82 115q-41 0 -76 -34t-35 -65z" />
    <glyph glyph-name="c106" unicode="j" horiz-adv-x="2560" 
d="M1126 2400v1184h99q35 -234 94.5 -392.5t139 -271t238.5 -291t257 -302.5q295 -378 295 -791q0 -424 -361 -1032h-65q46 106 107 246t102.5 254t65.5 227t24 223q0 174 -71 351t-198.5 327t-290 243t-337.5 103v-78h-99z" />
    <glyph glyph-name="c107" unicode="k" horiz-adv-x="2478" 
d="M2183 1417q107 -231 107 -495q0 -345 -209 -689h-66q185 398 185 672q0 200 -89.5 352.5t-226 262t-366.5 250.5t-293 184v-82h-99v1712h99q11 -185 75 -315t127 -194.5t248 -235t279 -287.5q149 -187 218 -363.5t69 -373.5q0 -145 -58 -398zM2130 1528q0 29 2 82t2 78
q0 630 -909 1134q6 -205 95 -372t266 -345.5t314.5 -311t229.5 -265.5z" />
    <glyph glyph-name="c108" unicode="l" horiz-adv-x="152" 
d="M0 4137h152v-4088v-90h-152v4088v90z" />
    <glyph glyph-name="c109" unicode="m" horiz-adv-x="2601" 
d="M0 86v242l528 614q64 41 70 41q37 0 49 -25l434 -380q32 -32 70 -41q37 12 49 24l328 381q62 41 74 41q32 0 45 -25l434 -380q38 -40 69 -50q39 14 50 33l278 328v-242l-524 -614q-60 -41 -82 -41q-29 0 -41 24l-430 385q-29 29 -82 29q-31 0 -37 -12l-332 -385
q-48 -41 -78 -41q-27 0 -41 24l-430 385q-35 37 -82 37q-27 0 -40 -20z" />
    <glyph glyph-name="c110" unicode="n" horiz-adv-x="754" 
d="M119 201v-520l475 118v520zM0 -745v2179h119v-848l602 151v-2179h-127v848z" />
    <glyph glyph-name="c111" unicode="o" horiz-adv-x="537" 
d="M233 193q-83 0 -133.5 -58.5t-50.5 -142.5q0 -83 54 -138t139 -55q93 0 144.5 59.5t51.5 157.5q-18 177 -205 177zM242 -258q-102 0 -172 74t-70 176q0 107 69 178.5t173 71.5q100 0 169.5 -64.5t75.5 -161.5q0 -119 -68.5 -193.5t-176.5 -80.5z" />
    <glyph glyph-name="c112" unicode="p" horiz-adv-x="1913" 
d="M1384 958q-126 0 -212.5 -141t-129.5 -320t-43 -272q0 -159 99 -159q94 0 181.5 148t143.5 335t56 274q0 135 -95 135zM393 479h-98q138 278 273.5 448.5t336.5 170.5q43 0 85 -53.5t42 -122.5q54 30 108 60.5t113.5 58.5t110.5 42.5t106 14.5q184 0 268.5 -117.5
t84.5 -308.5q0 -118 -50 -248.5t-138 -241.5t-205 -179.5t-246 -68.5q-73 0 -148 42t-123 106l-208 -594q9 0 -9 -16q14 -50 49 -50h205v-127h-950v127h209q34 0 65 23t37 59l488 1368v25q0 28 -13 44.5t-24 16.5q-52 0 -109 -57t-107.5 -138t-91 -161.5t-61.5 -122.5z" />
    <glyph glyph-name="c113" unicode="q" horiz-adv-x="1417" 
d="M1225 3584v-3424q0 -190 -123.5 -343t-312.5 -237t-371 -84q-170 0 -288 90.5t-130 253.5q7 179 134 336.5t315.5 250.5t365.5 93q184 0 311 -102v3166h99z" />
    <glyph glyph-name="c114" unicode="r" horiz-adv-x="2617" 
d="M1126 418v3760h99q20 -208 80.5 -322t184 -231t349.5 -328q402 -387 402 -913q0 -181 -50 -361q50 -155 50 -327q0 -136 -41 -312q98 -126 98 -401q0 -192 -53 -389.5t-156 -351.5h-66q185 382 185 663q0 178 -71 324t-196.5 264.5t-272.5 219t-443 286.5v-1847
q0 -182 -122 -333t-309.5 -237t-367.5 -86q-185 0 -301.5 91t-116.5 270q0 174 125.5 325t315.5 240.5t358 89.5q200 0 319 -94zM1241 3432q0 -182 81 -310.5t281 -312t314 -306t213 -328.5q12 73 12 139q0 250 -137.5 457t-311 342t-452.5 319zM1233 2720
q12 -194 109.5 -347.5t248.5 -295.5t311.5 -292.5t227.5 -273.5q4 33 4 99q0 620 -901 1110z" />
    <glyph glyph-name="c115" unicode="s" horiz-adv-x="967" 
d="M848 250q-11 -141 -135 -225t-295 -99q-161 0 -289.5 80t-128.5 211q0 176 135 176q57 0 90 -33t33 -90q0 -15 -6.5 -34.5t-21.5 -51t-21 -49.5q17 -69 176 -69q61 0 127 44.5t66 106.5q0 68 -44.5 107t-154.5 106t-167 133.5t-60 173.5q0 151 111 252t274 101
q139 0 262 -66.5t123 -192.5q0 -45 -33.5 -82.5t-81.5 -43.5q-85 0 -110 46.5t-25 137.5q0 67 -86 78q-56 0 -117 -43t-68 -101q5 -4 7 -6l2 -2q4 -68 151 -173t217 -175t70 -217z" />
    <glyph glyph-name="c116" unicode="t" horiz-adv-x="2392" 
d="M0 0v4088v8h2097h184v-4088v-8h-151v496h-561v-496h-152v496h-553v-496h-159v496h-553v-496h-152zM152 639h553v496h-553v-496zM864 639h553v496h-553v-496zM1569 639h561v496h-561v-496zM1569 1274h561v504h-561v-504zM864 1274h553v504h-553v-504zM152 1274h553v504
h-553v-504zM1569 1913h561v504h-561v-504zM864 1913h553v504h-553v-504zM152 1913h553v504h-553v-504zM1569 2552h561v504h-561v-504zM864 2552h553v504h-553v-504zM152 2552h553v504h-553v-504zM152 3191h553v504h-553v-504zM864 3191h553v504h-553v-504zM1569 3191h561
v504h-561v-504z" />
    <glyph glyph-name="c117" unicode="u" horiz-adv-x="2822" 
d="M0 0h135q13 -222 120.5 -411t283 -328.5t388.5 -216t425 -76.5q280 0 555 135t454.5 374t190.5 523h143q-23 -280 -125 -540.5t-277 -466.5t-415 -324.5t-526 -118.5q-287 0 -529 118.5t-418 323t-279 465t-126 543.5zM1126 -209q0 87 62 148t155 61q107 0 170.5 -59.5
t63.5 -149.5q0 -81 -65 -141t-169 -60q-91 0 -154 61.5t-63 139.5z" />
    <glyph glyph-name="c118" unicode="v" horiz-adv-x="1118" 
d="M598 0l-598 1704h279l393 -1106l303 1106h98z" />
    <glyph glyph-name="c119" unicode="w" horiz-adv-x="1794" 
d="M512 86q12 -228 134.5 -376t295.5 -148q133 15 183.5 88.5t50.5 255.5q-18 234 -140 379t-299 145q-123 -20 -174 -89.5t-51 -254.5zM0 0q0 186 138 301.5t330 163t355 47.5q178 0 373.5 -47t339.5 -161.5t152 -303.5q0 -188 -138 -305t-330.5 -166t-363.5 -49
q-184 0 -378 47.5t-334 164t-144 308.5z" />
    <glyph glyph-name="c120" unicode="x" horiz-adv-x="2568" 
d="M1118 418v3166h107q22 -239 106 -365.5t278 -297.5t304 -312q158 -201 243 -385.5t85 -425.5q0 -187 -58 -389q107 -146 107 -451q0 -196 -53 -389.5t-156 -335.5h-66q193 374 193 656q0 532 -623 848q-44 22 -129.5 80t-131 87t-99.5 50v-1802q0 -186 -121.5 -336.5
t-309 -235t-368.5 -84.5q-174 0 -289.5 79.5t-128.5 240.5q0 181 125.5 343t317.5 257.5t372 95.5q189 0 295 -94zM1249 2822q0 -270 142.5 -467t408 -451.5t330.5 -383.5q16 81 16 172q0 204 -82.5 378.5t-212.5 310t-281 242t-321 199.5z" />
    <glyph glyph-name="c121" unicode="y" horiz-adv-x="1495" 
d="M0 4047h94q0 -229 116 -379.5t373 -386.5t390 -451t133 -532q0 -207 -57 -418q102 -183 102 -496q0 -381 -184 -679h-70q168 392 168 688q0 218 -90 369t-221 247t-345 217.5t-315 198.5v-2306q338 393 713 393q109 0 207.5 -44t158.5 -126.5t60 -189.5
q0 -182 -125.5 -334.5t-316 -241t-365.5 -88.5q-190 0 -308 103.5t-118 281.5v4088v86zM111 3305q11 -234 105 -404.5t239 -314t302.5 -299t233.5 -305.5q17 81 17 177q0 209 -81.5 383.5t-211 309t-279 242t-325.5 211.5z" />
    <glyph glyph-name="c122" unicode="z" 
d="M446 1032h779v-135l-873 -672q89 37 160 37q48 0 134.5 -39t127.5 -47q57 11 57 82q-80 5 -94 94q6 52 40.5 89.5t86.5 37.5q64 0 104 -56t40 -144q0 -137 -100.5 -241t-301.5 -104q-76 0 -115 17.5t-119 61.5t-122 44q-55 0 -123 -57h-127v66l864 733q-195 0 -262 -5.5
t-100 -28.5t-84 -93h-99z" />
    <glyph glyph-name="c123" unicode="{" horiz-adv-x="561" 
d="M16 1536q0 114 71 178t171 64q103 0 178.5 -63t75.5 -171q0 -130 -72 -204.5t-182 -82.5q-107 8 -174.5 78.5t-67.5 200.5zM16 2609q0 113 73.5 175.5t172.5 62.5q106 0 178 -61.5t72 -176.5q0 -129 -73 -202.5t-181 -79.5q-103 6 -172.5 81.5t-69.5 200.5z" />
    <glyph glyph-name="c124" unicode="|" horiz-adv-x="127" 
d="M0 -3584v3457h127v-3457h-127z" />
    <glyph glyph-name="c125" unicode="}" horiz-adv-x="1954" 
d="M0 1544q0 114 75.5 178t182.5 64q104 0 179 -64t75 -178q0 -135 -76 -211t-178 -76q-105 0 -181.5 75.5t-76.5 211.5zM0 2609q0 114 75.5 176t182.5 62q104 0 179 -62.5t75 -175.5q0 -136 -76 -213.5t-178 -77.5q-105 0 -181.5 77.5t-76.5 213.5zM770 0v4088v41h168
v-4088v-41h-168zM1225 0v4088v41h639v-4088v-41h-639z" />
    <glyph glyph-name="c126" unicode="~" horiz-adv-x="1778" 
d="M1696 385q-78 -59 -176.5 -134t-180 -126.5t-161.5 -82.5t-154 -34q-86 12 -143.5 46t-173 118.5t-193 124t-170.5 39.5q-143 0 -344 -201v135q240 200 394 301t294 101q88 0 161.5 -41t173.5 -122t173.5 -124.5t163.5 -48.5q162 13 336 176v-127z" />
    <glyph glyph-name="c129" unicode="&#xc5;" horiz-adv-x="2560" 
d="M1225 -3174h-99v3047q-86 -119 -200 -207t-249.5 -137t-275.5 -49q-181 0 -291 92.5t-110 267.5q0 199 120.5 353t309 236.5t377.5 82.5q180 0 299 -89.5t119 -262.5v-2241q231 16 439 174.5t333 394t125 463.5q0 142 -39.5 290t-89 266.5t-162.5 365.5l57 25
q361 -587 361 -1033q0 -403 -295 -786q-91 -114 -255 -299t-241.5 -294t-137.5 -266t-95 -394z" />
    <glyph glyph-name="c130" unicode="&#xc7;" horiz-adv-x="1495" 
d="M0 -160q0 185 126 340t321 243.5t376 88.5q99 0 195 -49.5t155.5 -134.5t59.5 -185q0 -136 -106 -283.5t-271 -244.5q-223 -127 -438 -127q-167 0 -324 86v-1638q406 255 609.5 421.5t282.5 316t79 351.5q0 352 -127 590l45 33q168 -305 168 -680q0 -297 -86 -430
q41 -148 41 -283q0 -181 -49 -328q61 -113 61 -352q0 -238 -78 -393q70 -235 70 -373q0 -198 -61 -377q61 -213 61 -409q0 -303 -133 -527.5t-396 -491t-375 -412.5t-112 -343h-94v5591zM94 -3498q193 93 410.5 276t364.5 410.5t147 448.5q0 80 -17 139
q-72 -180 -178 -293.5t-322.5 -307t-310.5 -337t-94 -336.5zM94 -2777q370 195 642 478.5t272 610.5q0 36 -9 103q-86 -125 -240.5 -270.5t-318.5 -301t-255 -304t-91 -316.5zM94 -4239q240 118 446 293t332.5 389.5t126.5 435.5q0 62 -16 168q-62 -159 -153.5 -254
t-316 -303.5t-322 -367.5t-97.5 -361zM94 -4993q237 110 448 294.5t338.5 406t127.5 438.5q0 55 -17 159q-84 -188 -181 -289t-318 -303.5t-309.5 -349.5t-88.5 -356z" />
    <glyph glyph-name="c140" unicode="&#xe5;" 
d="M94 3785q30 -243 62 -353.5t94 -224.5q85 -151 224 -308.5t299 -340.5t246.5 -362t86.5 -398q0 -523 -344 -1085h-66q279 554 279 934q0 239 -116.5 474.5t-319 390.5t-445.5 175v-2568q117 170 322.5 281.5t406.5 111.5q163 0 282.5 -100.5t119.5 -259.5
q0 -183 -125 -338t-315 -244.5t-367 -89.5q-170 0 -294 102.5t-124 265.5v3937h94z" />
    <glyph glyph-name="c141" unicode="&#xe7;" horiz-adv-x="2671" 
d="M1126 438v4088v1163h99q8 -243 128 -406t371 -402.5t379.5 -450t128.5 -518.5q0 -203 -57 -414q27 -38 50.5 -144.5t23.5 -232.5q0 -197 -74 -377q74 -148 74 -377q0 -180 -66 -352q74 -229 74 -377q0 -85 -33 -221q66 -132 66 -352q0 -195 -54.5 -416.5t-154.5 -415.5
h-66q176 413 176 680q0 178 -70 313.5t-188.5 244t-380.5 297.5t-327 239v-1847q0 -141 -72.5 -263t-194 -213.5t-260.5 -139.5t-272 -48q-175 0 -300.5 89.5t-125.5 221.5q0 194 125.5 356t321 255.5t384.5 93.5q179 0 295 -74zM1225 3424q0 -199 88 -338t297 -326
t322 -303.5t198 -306.5q16 67 16 140q0 182 -94 349t-234.5 305.5t-304.5 262.5t-288 217zM1225 2703q0 -202 152.5 -380.5t433 -422.5t348.5 -356q4 29 4 86q0 247 -144 447t-337 337.5t-457 288.5zM1225 4178q34 -181 118 -324.5t220.5 -298t296 -333.5t270.5 -351
q4 33 4 95q0 302 -150.5 552.5t-361.5 417t-397 242.5zM1225 4927q22 -190 113 -329t287.5 -334.5t305.5 -320.5t191 -310q20 88 20 176q0 242 -162.5 476t-380.5 405t-374 237z" />
    <glyph glyph-name="c160" unicode="&#x2020;" horiz-adv-x="2183" 
d="M160 1286h545v483h-545v-483zM160 1929h545v488h-545v-488zM160 2576h545v488h-545v-488zM160 3224h545v479h-545v-479zM160 639h545v487h-545v-487zM0 0v4088v41h864v-4088v-41h-159v512h-545v-512h-160z" />
    <glyph glyph-name="c161" unicode="&#xb0;" horiz-adv-x="3408" 
d="M2953 152q0 65 44 104t108 39q56 0 99.5 -38.5t43.5 -104.5q0 -64 -46.5 -108t-104.5 -44q-144 0 -144 152zM848 1798q-241 -11 -456.5 -142t-215.5 -353q0 -160 119 -160q78 0 119 74.5t49 166.5h74v-98q0 -152 -78 -270.5t-197 -118.5q-110 0 -186 81t-76 214
q7 206 143 364t343 241t411 83q158 -5 311.5 -76t253 -198.5t99.5 -286.5q0 -78 -61 -145.5t-140 -67.5q-224 0 -344 336l74 28q27 -64 75.5 -107.5t91.5 -43.5q50 0 84.5 43t34.5 92q0 141 -135 229t-291 115l-127 -295q-16 -41 -16 -61q0 -73 34 -130.5t106.5 -143
t111.5 -144.5t47 -127q0 -36 -15.5 -76t-43.5 -88t-72.5 -116t-85.5 -130q106 -15 173.5 -43.5t145 -76.5t111.5 -64q8 0 8 -8q66 13 135 98q0 45 -8 70q8 215 100 396t285 181q67 0 121.5 -61.5t54.5 -130.5q-33 -131 -122 -224t-238 -194q54 -213 192 -213q135 0 287 160
q0 40 -12 102q16 398 372 561q-216 385 -815 512l17 70q216 -26 432.5 -107.5t395.5 -217t287.5 -326t108.5 -426.5q0 -198 -123 -371.5t-311 -173.5q-115 0 -201.5 77.5t-125.5 201.5q-59 -39 -171 -123t-173 -123q-48 -41 -86 -41q-126 0 -242 303l-328 -279l-9.5 -9.5
l-6.5 -6.5q-34 0 -45.5 19.5t-20 62.5t-20.5 61q-61 158 -209 267q-211 -269 -336 -361q-61 -49 -111 -49q-65 0 -65 57q0 112 69 179.5t208.5 148.5t211.5 153.5t72 190.5q0 66 -37 130t-111 154.5t-94 121.5q-49 65 -49 114q0 11 4 24l4 13q56 104 101 185.5t81.5 162.5
t51.5 164zM1638 512q226 152 226 279q0 43 -26 74.5t-60 31.5q-156 0 -156 -242q0 -45 16 -143zM2544 958q-70 -40 -112 -93.5t-62 -114t-29.5 -124.5t-22.5 -155q0 -113 50.5 -228.5t150.5 -115.5q85 0 122.5 94.5t37.5 196.5q0 310 -135 540z" />
    <glyph glyph-name="c162" unicode="&#xa2;" horiz-adv-x="1073" 
d="M520 344h-520l33 86q182 173 321.5 388.5t190.5 389.5h385q-162 -213 -363 -406.5t-440 -375.5h434l78 279l311 303h25l-176 -582h225l-33 -82h-229q-22 -69 -35.5 -119.5t-21.5 -72.5q0 -17 -9 -33q11 -45 127 -45h49l-24 -74h-606l20 74l49 8q77 5 113 40t53.5 89
t42.5 133z" />
    <glyph glyph-name="c163" unicode="&#xa3;" horiz-adv-x="1184" 
d="M672 578q151 -114 151 -242q0 -101 -64.5 -194.5t-165 -150.5t-200.5 -57q-200 0 -296.5 69.5t-96.5 164.5q0 69 41 122.5t94 53.5q62 0 98.5 -32.5t36.5 -86.5q0 -41 -43.5 -83.5t-50.5 -67.5q11 -22 28 -33.5t40.5 -18t50.5 -14.5q129 13 206 136.5t77 256.5
q0 91 -56 129.5t-194 38.5l24 86q222 0 317 69.5t101 205.5q0 205 -156 205q-113 0 -135 -78q7 -18 32.5 -59t25.5 -68q0 -97 -111 -107q-8 8 -25 8q-85 13 -98 107q7 100 104.5 189.5t247.5 89.5q163 -6 250 -89.5t94 -197.5q0 -222 -327 -352z" />
    <glyph glyph-name="c164" unicode="&#xa7;" horiz-adv-x="967" 
d="M287 606q172 115 299 115q114 0 171.5 -79.5t57.5 -211.5q0 -204 -139 -350t-357 -146q-319 12 -319 418q0 142 47 298.5t130.5 286.5t193.5 209t235 79q118 0 180 -66.5t62 -159.5q0 -68 -40.5 -118t-102.5 -50q-121 0 -136 99q8 63 44.5 119t91.5 77q-42 13 -87 13
q-114 0 -188.5 -95.5t-108.5 -221.5t-34 -216zM479 606q-67 0 -132.5 -97.5t-96.5 -221.5q0 -34 -17 -111q16 -143 86 -143q128 0 189 132t61 265q0 165 -90 176z" />
    <glyph glyph-name="c165" unicode="&#x2022;" horiz-adv-x="1311" 
d="M344 623q-96 106 -111 258q8 147 127 237t312 90q186 -6 293.5 -107t107.5 -220q0 -95 -72.5 -176.5t-201.5 -135.5q131 -143 131 -311q0 -140 -124.5 -232t-359.5 -92q-206 0 -326 94t-120 230q0 119 87.5 216.5t256.5 148.5zM393 578q-219 -129 -233 -320
q11 -126 88 -180t215 -70q217 14 217 193q-23 125 -287 377zM754 623q159 114 159 274q0 99 -67 172.5t-166 73.5q-178 0 -193 -168q9 -17 9 -45q43 -133 258 -307z" />
    <glyph glyph-name="c166" unicode="&#xb6;" horiz-adv-x="991" 
d="M504 0h-402q54 186 190 345t298.5 339t224.5 340l-8 8q-171 -140 -270 -151q-9 8 -25 8q-16 5 -87 49.5t-130 44.5q-154 -21 -213 -246h-82l143 480h82q-24 -52 -32 -91q14 -35 40 -45q11 6 62.5 48.5t95 65t96.5 22.5q40 -5 65.5 -23t59.5 -52t63.5 -51.5t69.5 -17.5
t77.5 41.5t49.5 102.5h78q-30 -176 -83.5 -293t-152.5 -289.5t-148.5 -306.5t-61.5 -328z" />
    <glyph glyph-name="c167" unicode="&#xdf;" 
d="M0 -4104q169 146 314.5 274t232 258t133 333t49.5 527q0 279 -69 607.5t-227 976.5t-240 1125t-82 925q0 668 129 1216t313.5 927.5t323 569.5t348.5 445q-183 -344 -301 -589t-213.5 -507.5t-149 -540t-53.5 -571.5q0 -103 4 -152q20 -413 111 -828.5t262.5 -1042.5
t255.5 -1008t84 -688q0 -432 -67.5 -754.5t-209 -571t-372 -470.5t-576.5 -461z" />
    <glyph glyph-name="c168" unicode="&#xae;" horiz-adv-x="1720" 
d="M881 33l225 798q-142 -70 -242.5 -106.5t-199.5 -36.5q-151 0 -268 94.5t-117 233.5q0 129 85 224t214 95q122 -6 196 -88.5t74 -230.5q-5 -37 -26 -82.5t-23 -52.5q12 -25 65 -25q65 0 159 70.5t144 138.5l217 799q-278 -144 -442 -144q-147 0 -264 94.5t-117 233.5
q0 121 67.5 210.5t186.5 100.5q153 0 232 -82t79 -196q0 -75 -28 -152q0 -31 45 -41q245 84 426 361h69l-1060 -3826h-148l393 1393q-278 -144 -446 -144q-144 0 -260.5 94.5t-116.5 233.5q0 130 83 224.5t212 94.5q117 -6 191.5 -91.5t74.5 -202.5q0 -24 -5 -48.5t-14 -52
t-14 -43.5q11 -41 58 -41q62 0 150 64t145 129z" />
    <glyph glyph-name="c169" unicode="&#xa9;" horiz-adv-x="713" 
d="M606 1794v-1712q0 -88 -60.5 -166.5t-152.5 -126t-176 -47.5q-93 0 -155 46.5t-62 129.5q0 86 64 165.5t157.5 127t179.5 47.5q87 0 160 -49v1585h45z" />
    <glyph glyph-name="c170" unicode="&#x2122;" horiz-adv-x="1073" 
d="M0 0q0 343 438 569q51 26 123 63.5t125.5 81.5t83 100.5t29.5 135.5q0 75 -43 134t-117 59q-90 0 -145.5 -44t-55.5 -132q0 -4 8.5 -34.5t8.5 -68.5q0 -119 -95 -119q-44 0 -73 33.5t-29 69.5q0 163 128 266t294 103q151 0 241.5 -84t102.5 -236q0 -137 -107.5 -210.5
t-285.5 -133.5q-143 -56 -233 -106t-181 -152v-8q25 8 78 8q51 0 92.5 -15t110.5 -47t104.5 -44.5t77.5 -12.5q98 11 192 152l66 -33q-104 -180 -179.5 -270.5t-189.5 -90.5q-53 0 -115 40t-123.5 80t-113.5 40q-83 0 -131 -94h-86z" />
    <glyph glyph-name="c172" unicode="&#xa8;" horiz-adv-x="1192" 
d="M528 1704l607 -1704h-263l-409 1159l-369 -1159h-94zM664 184q0 -78 -53 -131t-132 -53q-76 0 -130 54t-54 130q0 72 54 128.5t130 56.5q79 0 132 -55.5t53 -129.5z" />
    <glyph glyph-name="c174" unicode="&#xc6;" horiz-adv-x="553" 
d="M258 0l-258 664h528z" />
    <glyph glyph-name="c175" unicode="&#xd8;" horiz-adv-x="942" 
d="M1126 -3113v2929q-103 -147 -291 -251t-372 -110q-247 0 -351 102t-104 349q0 163 124 313t311 242t356 92t259 -36t128.5 -131t38.5 -275v-3224h-99zM430 119q-295 -232 -295 -398q0 -98 107 -98q102 0 252.5 72t250.5 145q361 279 361 463q0 98 -107 98
q-102 0 -272.5 -87t-296.5 -195z" />
    <glyph glyph-name="c177" unicode="&#xb1;" 
d="M614 631l611 -1110h-1225zM614 352l-372 -688h741z" />
    <glyph glyph-name="c180" unicode="&#xa5;" horiz-adv-x="1454" 
d="M631 2769q-220 186 -537 369q14 -131 80 -279t162 -258q108 -108 238 -239t241.5 -242.5t183.5 -182.5v70q0 408 -368 762zM631 3482q-232 196 -537 364q19 -133 51.5 -229.5t116.5 -192.5q83 -99 176.5 -189t213.5 -205.5t205.5 -223.5t141.5 -230v160q0 136 -47 272
t-130.5 255.5t-190.5 218.5zM0 -160v4088v672h94q15 -300 176 -471q151 -146 294.5 -284t265 -290t199 -332.5t77.5 -383.5q0 -198 -49 -398q49 -146 49 -311q0 -237 -33 -315q78 -152 78 -422q0 -200 -50.5 -393.5t-150.5 -335.5h-61q176 255 176 679q0 201 -90 356
t-220 263.5t-353.5 254t-307.5 208.5v-2306q126 168 329 280.5t400 112.5q163 0 282.5 -100.5t119.5 -259.5q0 -183 -125 -338t-315 -244.5t-367 -89.5q-106 0 -203 44t-156 127t-59 189z" />
    <glyph glyph-name="c181" unicode="&#xb5;" horiz-adv-x="3658" 
d="M0 86v233l512 619q36 29 57 29q20 0 70 -25l434 -381q19 -27 62 -41q48 12 73 49l312 369q12 29 49 29q42 0 78 -29l426 -369q36 -36 69 -49q48 15 66 41l311 369q30 37 49 37q25 0 66 -29l430 -377q27 -27 74 -49q46 10 61 41l291 336v-242l-512 -590q-59 -57 -90 -57
q-33 0 -66 33l-414 360q-43 45 -90 45q-28 0 -61 -45l-303 -360q-41 -41 -66 -41q-21 0 -73 41l-422 377q-31 28 -74 28q-31 0 -53 -45l-316 -352q-24 -49 -61 -49q-25 0 -74 49q-46 37 -201.5 174t-228.5 195q-44 28 -66 28q-37 0 -69 -53q-12 -14 -114.5 -136t-135.5 -163
z" />
    <glyph glyph-name="c187" unicode="&#xaa;" horiz-adv-x="938" 
d="M553 1143q-105 0 -161.5 -72.5t-82.5 -173.5t-51 -201q7 -151 119 -151q78 0 142 73t100 176t36 181q0 52 -30 110t-72 58zM520 1225q180 0 270.5 -126.5t90.5 -316.5q0 -169 -77.5 -358t-216 -323.5t-308.5 -157.5q-106 0 -189.5 60.5t-89.5 148.5q3 8 16 52.5
t32.5 63.5t62.5 19q40 0 69 -27.5t29 -75.5q0 -18 -25 -118q14 -50 66 -50q118 0 208 173t136 356q-95 -64 -152.5 -91.5t-130.5 -27.5q-124 0 -201 77t-77 202q0 123 58.5 243.5t169.5 198.5t259 78z" />
    <glyph glyph-name="c188" unicode="&#xba;" horiz-adv-x="1024" 
d="M303 -66q-141 0 -222 113t-81 256q0 201 80.5 415t229.5 356.5t337 142.5q141 0 218.5 -103t84.5 -250q0 -192 -78.5 -411t-226 -369t-342.5 -150zM311 8q130 0 228.5 191.5t152 432.5t53.5 359q0 74 -33 113t-65 39q-134 0 -235 -189t-156 -431.5t-55 -362.5
q0 -56 35.5 -104t74.5 -48z" />
    <glyph glyph-name="c190" unicode="&#xe6;" 
d="M0 0v311l1225 627v-324zM0 512v311l1225 627v-315zM0 1024v311l1225 627v-315z" />
    <glyph glyph-name="c191" unicode="&#xf8;" 
d="M1225 111q0 -185 -129 -337.5t-326 -239.5t-385 -87q-42 0 -106 8q-157 35 -218 141t-61 285v3232h94v-2929q87 107 205.5 188t255 127t268.5 46q121 0 234 -41q73 -31 120.5 -135.5t47.5 -257.5zM1106 295q0 40 -43.5 65t-87.5 25q-205 0 -537 -258
q-124 -77 -221.5 -185t-97.5 -221q0 -50 33.5 -82t89.5 -32q55 0 150.5 34t185.5 89q147 96 247.5 171t185 179t95.5 215z" />
    <glyph glyph-name="c192" unicode="&#xbf;" horiz-adv-x="1286" 
d="M598 119l520 504l107 -119l-504 -496l496 -504l-111 -110l-500 495l-504 -495l-102 127l496 487l-504 496l110 110z" />
    <glyph glyph-name="c193" unicode="&#xa1;" horiz-adv-x="848" 
d="M569 1217h238l-336 -1082q0 -44 115 -61q28 8 53 8l-25 -82h-614l25 82q81 0 138.5 16.5t78.5 77.5l213 688l-279 -217l-41 41z" />
    <glyph glyph-name="c194" unicode="&#xac;" horiz-adv-x="1753" 
d="M606 -639h-606v1192q381 47 551.5 76t354 92t350.5 180.5t321 306.5l94 -32q-83 -170 -196.5 -307t-242.5 -239.5t-274 -188t-352 -191.5v-889z" />
    <glyph glyph-name="c196" unicode="&#x192;" horiz-adv-x="3498" 
d="M999 889q-44 -213 -121.5 -444t-163 -415.5t-161.5 -291.5q-232 -388 -520 -443q-66 -8 -90 -8q-150 0 -231 92t-81 220q0 180 217 241q73 -6 120.5 -56t47.5 -120q0 -57 -25 -96.5t-64.5 -72t-45.5 -40.5q-16 -16 -16 -24q0 -25 49 -25q141 0 236.5 159t144.5 341
q42 126 91 304t101 366t91 305h-275v135h328q67 169 194.5 322.5t303 247t382.5 93.5q115 -6 174.5 -73t59.5 -164q0 -111 -66 -186t-176 -89q-123 0 -135 115q6 68 54.5 133t121.5 88q25 0 25 25q0 15 -31.5 32t-83.5 17q-264 0 -414 -553h680q107 273 340.5 464t540.5 191
q117 -6 173 -76t56 -169q0 -106 -64.5 -180t-172.5 -87q-123 0 -135 115q7 71 54 134.5t122 86.5q20 0 20 25q0 15 -29.5 32t-80.5 17q-162 0 -262.5 -175t-151.5 -386h356v-135h-397q-79 -331 -206.5 -659t-235.5 -484q-104 -167 -228 -288.5t-301 -154.5q-66 -8 -90 -8
q-147 0 -227.5 92t-87.5 220q11 105 63 156t154 85q78 -6 127 -55t49 -121q0 -57 -39 -106t-117 -127q0 -25 49 -25q236 0 385 500q49 153 87.5 289.5t102.5 373t89 320.5h-664z" />
    <glyph glyph-name="c199" unicode="&#xab;" horiz-adv-x="1311" 
d="M1159 0v1065h98v-1065h-98z" />
    <glyph glyph-name="c200" unicode="&#xbb;" horiz-adv-x="94" 
d="M0 -1032v1032h94v-1032h-94z" />
    <glyph glyph-name="c201" unicode="&#x2026;" horiz-adv-x="1401" 
d="M578 193v512l-218 -152v70l218 159v987h61q0 -161 61 -266.5t176.5 -224.5t155.5 -188l144 94v-74l-111 -78q61 -122 61 -270q0 -240 -168 -520h-28q135 281 135 454q0 157 -74 287l-360 -246v-688q0 -109 -132.5 -214t-281.5 -105q-168 0 -209 176q0 69 60.5 146.5
t156.5 129t193 51.5q77 0 160 -40zM958 1032q-99 167 -327 193v-418z" />
    <glyph glyph-name="c206" unicode="&#x152;" horiz-adv-x="1098" 
d="M393 1638l656 -798q-223 -267 -321.5 -439t-104.5 -335q6 -149 104 -320t305 -418l-65 -90q-175 102 -336 115q-107 0 -164.5 -71t-65.5 -187q16 -260 205 -471l-53 -78q-244 181 -393 351t-160 382q6 166 108 255t269 89q137 0 319 -94v8l-630 840q413 365 413 680
q0 249 -262 581h176z" />
    <glyph glyph-name="c207" unicode="&#x153;" horiz-adv-x="1425" 
d="M1225 152q0 -182 -128 -335t-320.5 -241t-366.5 -88q-165 0 -287.5 99t-122.5 261q0 181 127.5 332t320 237.5t367.5 86.5q399 0 410 -352z" />
    <glyph glyph-name="c208" unicode="&#x2013;" 
d="M0 606h1225v-1220h-1225v1220z" />
    <glyph glyph-name="c209" unicode="&#x2014;" 
d="M614 631l611 -1110h-1225z" />
    <glyph glyph-name="c210" unicode="&#x201c;" horiz-adv-x="1106" 
d="M606 -41h-606v4088v90h606v-4088v-90zM1057 -41h-152v4088v90h152v-4088v-90z" />
    <glyph glyph-name="c211" unicode="&#x201d;" horiz-adv-x="1106" 
d="M807 4137h151v-4088v-90h-151v4088v90zM1249 4137h615v-4088v-90h-615v4088v90z" />
    <glyph glyph-name="c212" unicode="&#x2018;" horiz-adv-x="2617" 
d="M1786 2089h708l-1781 -2089h-713zM258 1577q0 95 67.5 166.5t161.5 71.5t164 -71.5t70 -166.5q0 -92 -70 -163t-164 -71t-161.5 70.5t-67.5 163.5zM1778 504q0 95 66.5 164t162.5 69t165 -69t69 -164t-70 -168.5t-164 -73.5t-161.5 73.5t-67.5 168.5z" />
    <glyph glyph-name="c214" unicode="&#xf7;" horiz-adv-x="1200" 
d="M0 3809h1143v-3530h-1143v3530zM184 3441v-2786h774v2786h-774z" />
    <glyph glyph-name="c217" unicode="&#x178;" horiz-adv-x="2023" 
d="M209 250l217 631h-426l49 143h422l90 287l279 200h82l-168 -487q88 0 265.5 33t274.5 33q58 0 82.5 -23t24.5 -84q0 -19 -17 -127q160 234 361 234q158 -18 168 -185q0 -94 -41 -135t-94 -41q-107 0 -123 127q24 48 24 94q0 25 -41 25q-172 0 -303 -381l-192 -594h-271
l50 135q-48 -20 -138 -75.5t-158 -86t-147 -30.5q-111 0 -195.5 59.5t-90.5 157.5q4 16 8 47t8 43zM938 287l205 602q0 9 4 24t4 17q0 20 -33 20q-76 0 -205 -30.5t-200 -30.5l-209 -619q-15 -51 -25 -94q0 -60 74 -74q110 11 385 185z" />
    <glyph glyph-name="c220" unicode="&#x2039;" horiz-adv-x="1135" 
d="M713 -537v185q0 79 -52.5 123.5t-123.5 44.5q-77 0 -131 -46t-54 -114v-193h-352v353h225q58 12 92.5 62t34.5 122q0 65 -38 124.5t-64 59.5h-250v353h352v-218q0 -52 53.5 -93.5t131.5 -41.5q68 0 122 40t54 87v226h377v-353h-234q-57 -12 -100 -67t-43 -117
q0 -72 41 -125t102 -59h234v-353h-377z" />
    <glyph glyph-name="c221" unicode="&#x203a;" horiz-adv-x="2142" 
d="M119 1622h1802v426h127v-2048h-127v455h-1802v-455h-119v2048h119v-426zM1921 774v529h-1802v-529h1802z" />
    <glyph glyph-name="c224" unicode="&#x2021;" horiz-adv-x="967" 
d="M930 815l-459 -815l-471 815h930z" />
    <glyph glyph-name="c225" unicode="&#xb7;" 
d="M1225 0l-619 -614l-606 614l606 606zM1040 0l-434 426l-422 -426l422 -430z" />
    <glyph glyph-name="c226" unicode="&#x201a;" 
d="M1225 0l-619 -614l-606 614l606 606z" />
    <glyph glyph-name="c227" unicode="&#x201e;" horiz-adv-x="631" 
d="M0 1024h606v-1024h-606v1024z" />
    <glyph glyph-name="c228" unicode="&#x2030;" horiz-adv-x="1118" 
d="M430 -1577l393 1393q-278 -144 -446 -144q-144 0 -260.5 94.5t-116.5 233.5q0 118 65.5 203t184.5 108q137 0 224 -81t87 -197q0 -27 -7 -55.5t-18.5 -60t-15.5 -44.5q0 -25 49 -25q230 0 430 353h74l-495 -1778h-148z" />
    <glyph glyph-name="c229" unicode="&#xc2;" horiz-adv-x="2306" 
d="M1450 2089l221 799q-147 -72 -245 -108t-201 -36q-145 0 -261 94.5t-116 233.5q0 116 67 202t183 109q137 0 224 -81t87 -197q0 -37 -20 -95.5t-21 -64.5q0 -20 41 -33q120 39 189.5 79t130.5 122l225 799q-286 -144 -443 -144q-149 0 -267 94.5t-118 233.5
q0 120 65.5 204.5t184.5 114.5q139 0 229.5 -84t90.5 -202q0 -43 -20.5 -104.5t-20.5 -63.5q0 -12 41 -25q141 47 237.5 131t200.5 230h66l-1127 -4088l-495 -1786h-148l393 1393q-278 -144 -446 -144q-144 0 -260.5 94.5t-116.5 233.5q0 130 83 224.5t212 94.5
q117 -6 191.5 -91.5t74.5 -202.5q0 -20 -19 -72t-22 -64q12 -49 66 -49q62 0 150 64t145 129l225 798q-142 -70 -242.5 -106.5t-199.5 -36.5q-151 0 -268 94.5t-117 233.5q0 129 85 224t214 95q121 -6 195.5 -100t74.5 -219q0 -14 -18.5 -58.5t-22.5 -68.5q11 -33 57 -33
q65 0 159 70.5t144 138.5l217 799q-278 -144 -442 -144q-147 0 -264 94.5t-117 233.5q0 116 68.5 202t185.5 109q137 0 224 -80.5t87 -197.5q0 -35 -18 -97t-18 -63q0 -22 53 -33q16 8 57 8q125 44 250 193z" />
    <glyph glyph-name="c231" unicode="&#xc1;" horiz-adv-x="2474" 
d="M1761 -2441q369 346 369 762v69q-4 -4 -21.5 -25t-36.5 -42.5t-49 -51.5q-79 -101 -268.5 -272.5t-276.5 -259t-166 -229.5t-87 -320q322 187 536 369zM1761 -3154q369 362 369 746v151q-165 -320 -561 -672q-9 -9 -84.5 -78t-91.5 -90q-151 -170 -168 -421
q309 171 536 364zM1126 -127q-115 -165 -323 -279t-402 -114q-169 0 -285 98.5t-116 261.5q0 186 122.5 341t312.5 243t372 88q158 0 288 -94.5t130 -249.5v-2265q68 47 229 153t269.5 183.5t205.5 167.5q262 197 262 635q0 135 -40 295.5t-87 236.5l50 49
q77 -127 122 -314.5t45 -381.5q0 -256 -81 -414q32 -164 32 -311q0 -181 -49 -316q49 -200 49 -397q0 -203 -76.5 -383t-198 -332.5t-265.5 -292.5t-291 -282q-160 -160 -176 -471h-99v4088v57z" />
    <glyph glyph-name="c232" unicode="&#xcb;" horiz-adv-x="1143" 
d="M606 0l-606 1704h319l353 -1098l295 1098h131zM446 1511q7 85 64 131t129 46q83 0 137.5 -47.5t54.5 -129.5q0 -91 -59 -146.5t-149 -61.5q-72 7 -124.5 61t-52.5 147z" />
    <glyph glyph-name="c233" unicode="&#xc8;" horiz-adv-x="377" 
d="M57 74v-258l238 57v262zM0 -393v1155h57v-492l303 74v-1135h-65v472z" />
    <glyph glyph-name="c234" unicode="&#xcd;" 
d="M0 4080v57q344 -248 576 -479.5t373.5 -485t208.5 -577t67 -756.5q0 -307 -84 -688.5t-255 -1005.5t-262.5 -1042t-111.5 -832q-4 -49 -4 -147q0 -293 53 -566.5t149.5 -534t215.5 -499.5t299 -563v-65q-298 413 -514.5 838.5t-348 831t-191.5 783.5t-60 721
q0 450 82.5 930t241 1129t226.5 972.5t68 601.5q-4 286 -94 532t-251.5 453.5t-383.5 391.5z" />
    <glyph glyph-name="c236" unicode="&#xcf;" horiz-adv-x="4641" 
d="M2466 881q-71 -321 -200.5 -648t-242.5 -495q-106 -170 -228.5 -290t-299.5 -153q-66 -8 -90 -8q-147 0 -227.5 92t-87.5 220q11 105 62 156t151 85q80 -6 128 -55t48 -121q0 -81 -152 -233q0 -25 49 -25q236 0 385 500q42 131 94.5 320.5t99.5 363.5t85 291h-664
q-74 -320 -203.5 -647.5t-242.5 -495.5q-235 -389 -520 -443q-66 -8 -91 -8q-150 0 -231 91.5t-88 220.5q12 110 62 163t155 78q78 -6 127 -55t49 -121q0 -41 -25.5 -82.5t-65 -81l-69.5 -69.5q0 -25 46 -25q81 0 145.5 50.5t109 127t65.5 131t73 191.5q34 106 90 308
t103 376t85 291h-270v135h328q66 174 190 326t299.5 244.5t390.5 92.5q115 -6 174.5 -73t59.5 -164q0 -109 -67 -185t-175 -90q-123 0 -135 115q6 68 53.5 133t122.5 88q25 0 25 25q0 15 -31.5 32t-83.5 17q-162 0 -262 -173t-152 -380h680q107 273 340.5 464t540.5 191
q114 -6 171.5 -72.5t57.5 -164.5q0 -111 -64.5 -186t-172.5 -89q-126 0 -140 115q8 70 55.5 134t120.5 87q25 0 25 25q0 15 -31 32t-80 17q-274 0 -417 -561h680q111 277 343 474.5t537 197.5q119 -11 176.5 -83.5t57.5 -170.5q0 -103 -67 -178.5t-175 -88.5
q-113 0 -127 115q6 67 53 132.5t115 88.5q25 0 25 25q0 15 -31 32t-80 17q-275 0 -418 -561h361v-135h-402q-45 -213 -120.5 -438t-161 -411t-156.5 -294q-107 -165 -231 -285t-297 -158q-58 -8 -82 -8q-152 0 -232.5 90t-87.5 222q13 111 63.5 163.5t153.5 77.5
q73 -6 120.5 -51.5t47.5 -116.5q0 -48 -23.5 -85t-67.5 -83t-60 -73q0 -25 49 -25q138 0 226 148t155 352q45 141 93 310t99.5 354t89.5 311h-663z" />
    <glyph glyph-name="c237" unicode="&#xcc;" horiz-adv-x="774" 
d="M0 -1794v1675q0 121 60 203.5t153 124t188 49.5q89 0 151 -48.5t62 -135.5q0 -131 -130.5 -227.5t-266.5 -96.5q-101 0 -160 33v-1577h-57z" />
    <glyph glyph-name="c238" unicode="&#xd3;" horiz-adv-x="1343" 
d="M0 512h1282v-512h-1282v512z" />
    <glyph glyph-name="c239" unicode="&#xd4;" horiz-adv-x="1479" 
d="M0 -94q0 132 126 274.5t316.5 237t364.5 94.5q102 0 199.5 -44t158 -124.5t60.5 -183.5q0 -134 -94.5 -275.5t-233.5 -236.5q-249 -160 -496 -160q-192 0 -299 86v-1630q29 23 271.5 185t406 296t219.5 248q66 135 66 352q0 286 -127 590l45 41q168 -344 168 -688
q0 -223 -78 -422q0 -16 18.5 -135t18.5 -217q0 -167 -53 -283q53 -204 53 -389q0 -182 -61 -340q57 -223 57 -389q0 -244 -109 -490t-374 -485q-6 -7 -107 -92t-191 -186.5t-156.5 -239.5t-66.5 -301h-102v4088v819zM639 -2392q176 159 268 365t92 380v70
q-47 -77 -244 -274.5t-345 -323.5q-250 -218 -316 -602q120 48 282.5 166.5t262.5 218.5zM696 -3047q303 292 303 712v111q-137 -255 -266.5 -393t-311.5 -294.5t-250.5 -270t-68.5 -308.5q375 223 594 443zM614 -3879q171 143 278 352t107 463v119q-160 -273 -284.5 -402.5
t-307.5 -289t-244 -273t-61 -329.5q329 196 512 360z" />
    <glyph glyph-name="c241" unicode="&#xd2;" horiz-adv-x="168" 
d="M0 2970v413h160v-413h-160zM0 2191v418h160v-418h-160zM0 1450v446h160v-446h-160zM0 705v454h160v-454h-160zM0 -33v418h160v-418h-160z" />
    <glyph glyph-name="c242" unicode="&#xda;" horiz-adv-x="1610" 
d="M594 193v1585l45 -9v-1720q0 -133 -127.5 -226t-278.5 -93q-176 0 -208 143q0 130 128 245t277 115q103 0 164 -40zM967 82v78h553v-78h-553zM967 -86h553v-82h-553v82z" />
    <glyph glyph-name="c243" unicode="&#xdb;" horiz-adv-x="1208" 
d="M561 569l-192 -569h-275l266 815v25q0 65 -41 65q-56 0 -136 -86.5t-117 -154.5l-66 32q46 79 134.5 163t194 141t191.5 57q103 0 103 -115q0 -20 -4.5 -46.5t-4.5 -39.5q85 111 164 172.5t180 61.5q76 0 130.5 -49t54.5 -119q0 -193 -144 -193q-41 0 -75.5 34t-34.5 93
q0 12 12 46t12 48q0 33 -41 33q-97 0 -177.5 -134.5t-133.5 -279.5z" />
    <glyph glyph-name="c244" unicode="&#xd9;" horiz-adv-x="2015" 
d="M1450 2089l221 799q-147 -72 -245 -108t-201 -36q-145 0 -261 94.5t-116 233.5q0 116 67 202t183 109q137 0 224 -81t87 -197q0 -41 -19.5 -98t-21.5 -70q0 -12 41 -25q147 48 246 132t192 229h74l-1130 -4088l-213 -762h-148l393 1393q-278 -144 -446 -144
q-144 0 -260.5 94.5t-116.5 233.5q0 130 83 224.5t212 94.5q111 -6 188.5 -87.5t77.5 -206.5q0 -20 -19 -72t-22 -64q12 -49 66 -49q62 0 150 64t145 129l225 798q-142 -70 -242.5 -106.5t-199.5 -36.5q-151 0 -268 94.5t-117 233.5q0 129 85 224t214 95q77 -5 138 -43
t96.5 -109.5t35.5 -166.5q0 -14 -18.5 -58.5t-22.5 -68.5q11 -33 57 -33q65 0 159 70.5t144 138.5l217 799q-278 -144 -442 -144q-147 0 -264 94.5t-117 233.5q0 116 68.5 202t185.5 109q137 0 224 -80.5t87 -197.5q0 -30 -6.5 -60t-14 -54.5t-15.5 -53.5q0 -13 45 -25
q24 8 65 8q125 44 250 193z" />
    <glyph glyph-name="c246" unicode="&#x2c6;" horiz-adv-x="1425" 
d="M1225 152q0 -182 -128 -335t-320.5 -241t-366.5 -88q-165 0 -287.5 99t-122.5 261q0 185 129 335.5t323.5 235.5t370.5 85q179 0 290.5 -85t111.5 -267z" />
  </font>
</defs>
</svg>
